#N canvas 532 25 621 653 16;
#X obj 138 44 gemhead;
#X obj 145 560 gemwin;
#X obj 139 101 pix_video;
#X obj 36 257 pix_delay 100;
#X obj 149 418 pix_texture;
#X obj 151 460 rectangle;
#X msg 520 480 5.333;
#X floatatom 270 463 5 0 0 0 - - -;
#X floatatom 272 498 5 0 0 0 - - -;
#X obj 474 437 loadbang;
#X msg 231 554 create;
#X obj 141 526 tgl 15 0 empty empty empty 17 7 0 10 -262144 -1 -1 0
1;
#X floatatom 210 187 5 0 99 0 delaytime_in_frames - -;
#X msg 250 91 dimen 640 480;
#X msg 162 589 frame 60;
#X obj 167 338 pix_mix;
#X floatatom 259 287 5 0 1 0 mix - -;
#X obj 264 252 hsl 128 15 0 1 0 0 empty empty empty -2 -8 0 10 -262144
-1 -1 6350 1;
#X obj 61 302 pix_flip;
#X msg 520 516 -4;
#X msg 31 368 vertical;
#X msg 24 459 both;
#X msg 25 429 none;
#X msg 25 398 horizontal;
#X obj 361 168 loadbang;
#X msg 362 197 0.5;
#X connect 0 0 2 0;
#X connect 2 0 3 0;
#X connect 2 0 15 1;
#X connect 3 0 18 0;
#X connect 4 0 5 0;
#X connect 6 0 7 0;
#X connect 7 0 5 1;
#X connect 8 0 5 2;
#X connect 9 0 6 0;
#X connect 9 0 19 0;
#X connect 10 0 1 0;
#X connect 11 0 1 0;
#X connect 12 0 3 1;
#X connect 13 0 2 0;
#X connect 14 0 1 0;
#X connect 15 0 4 0;
#X connect 16 0 15 2;
#X connect 17 0 16 0;
#X connect 18 0 15 0;
#X connect 19 0 8 0;
#X connect 20 0 18 0;
#X connect 21 0 18 0;
#X connect 22 0 18 0;
#X connect 23 0 18 0;
#X connect 24 0 25 0;
#X connect 25 0 17 0;
