#N canvas 621 22 675 543 16;
#X obj 72 47 gemhead;
#X obj 83 461 gemwin;
#X obj 74 201 pix_texture;
#X obj 76 263 rectangle;
#X msg 172 405 create;
#X obj 89 423 tgl 15 0 empty empty empty 17 7 0 10 -262144 -1 -1 0
1;
#X floatatom 183 252 5 0 0 0 - - -;
#X floatatom 184 281 5 0 0 0 - - -;
#X obj 313 194 loadbang;
#X msg 350 245 5.33333;
#X msg 350 281 4;
#X text 327 409 4:3 ratio;
#X text 326 476 4/3*4= 5.33333;
#X text 327 445 4/3*height = width;
#X msg 181 95 dimen 640 480;
#X obj 479 53 pix_info;
#X floatatom 559 186 5 0 0 0 - - -;
#X floatatom 506 122 5 0 0 0 - - -;
#X floatatom 539 158 5 0 0 0 - - -;
#X obj 484 298 t b b;
#X obj 485 337 timer;
#X floatatom 486 372 5 0 0 0 - - -;
#X msg 131 488 frame 60;
#X msg 258 318 -4;
#X msg 259 352 -5.3333;
#X obj 74 137 pix_video;
#X msg 188 59 dialog;
#X text 495 419 comment;
#X obj 75 169 pix_delay 100;
#X floatatom 218 155 5 0 0 0 - - -;
#X text 544 369 framerate;
#X text 275 154 delaytime in frames;
#X connect 0 0 25 0;
#X connect 2 0 3 0;
#X connect 4 0 1 0;
#X connect 5 0 1 0;
#X connect 6 0 3 1;
#X connect 7 0 3 2;
#X connect 8 0 9 0;
#X connect 8 0 10 0;
#X connect 9 0 6 0;
#X connect 10 0 7 0;
#X connect 14 0 25 0;
#X connect 15 1 17 0;
#X connect 15 2 18 0;
#X connect 15 3 16 0;
#X connect 19 0 20 0;
#X connect 19 1 20 1;
#X connect 20 0 21 0;
#X connect 22 0 1 0;
#X connect 23 0 7 0;
#X connect 24 0 6 0;
#X connect 25 0 15 0;
#X connect 25 0 19 0;
#X connect 25 0 28 0;
#X connect 26 0 25 0;
#X connect 28 0 2 0;
#X connect 29 0 28 1;
