#N canvas 500 106 722 447 10;
#X obj 113 45 bng 15 250 50 0 empty empty empty 17 7 0 10 -262144 -1
-1;
#X obj 108 78 openpanel;
#X symbolatom 107 117 80 0 0 0 - - -;
#X obj 107 235 dac~;
#X obj 338 26 tgl 15 0 empty empty empty 17 7 0 10 -262144 -1 -1 1
1;
#X msg 338 49 \; pd dsp \$1;
#X msg 107 146 open \$1;
#X obj 108 179 readsf~ 2;
#X text 133 44 first select file;
#X msg 197 183 start;
#X text 239 184 then start it;
#X msg 198 219 stop;
#X connect 0 0 1 0;
#X connect 1 0 2 0;
#X connect 2 0 6 0;
#X connect 4 0 5 0;
#X connect 6 0 7 0;
#X connect 7 0 3 0;
#X connect 7 1 3 1;
#X connect 9 0 7 0;
#X connect 11 0 7 0;
