#N canvas 501 144 722 447 10;
#X obj 113 45 bng 15 250 50 0 empty empty empty 17 7 0 10 -262144 -1
-1;
#X obj 108 78 openpanel;
#X symbolatom 107 117 80 0 0 0 - - -;
#X msg 107 146 read -resize \$1 array1;
#X obj 108 179 soundfiler;
#X obj 108 343 *~;
#X obj 110 371 tabread4~ array1;
#X obj 105 421 dac~;
#X obj 267 41 tgl 15 0 empty empty empty 17 7 0 10 -262144 -1 -1 1
1;
#X msg 267 64 \; pd dsp \$1;
#N canvas 0 0 450 300 (subpatch) 0;
#X array array1 3.14404e+06 float 2;
#X coords 0 1 3.14404e+06 -1 200 140 1;
#X restore 393 150 graph;
#X floatatom 129 318 10 0 0 0 - - -;
#X obj 109 288 phasor~ 1;
#X floatatom 107 243 10 0 0 0 - - -;
#X obj 105 221 expr 44100/$f1;
#X connect 0 0 1 0;
#X connect 1 0 2 0;
#X connect 2 0 3 0;
#X connect 3 0 4 0;
#X connect 4 0 11 0;
#X connect 4 0 14 0;
#X connect 5 0 6 0;
#X connect 6 0 7 0;
#X connect 6 0 7 1;
#X connect 8 0 9 0;
#X connect 11 0 5 1;
#X connect 12 0 5 0;
#X connect 13 0 12 0;
#X connect 14 0 13 0;
