#N canvas 724 65 540 619 10;
#X obj 144 137 fiddle~;
#X obj 144 103 adc~;
#X obj 134 431 gemhead;
#X obj 134 456 pix_video;
#X obj 151 570 gemwin;
#X msg 203 568 create;
#X msg 204 590 destroy;
#X obj 125 571 tgl 15 0 empty empty empty 17 7 0 10 -262144 -1 -1 1
1;
#X obj 134 479 pix_texture;
#X msg 210 456 dimen 640 480;
#X obj 210 436 loadbang;
#X obj 134 503 rectangle 5.333 4;
#X obj 134 407 tgl 15 0 empty empty empty 17 7 0 10 -262144 -1 -1 0
1;
#X obj 218 84 loadbang;
#X msg 217 106 auto 1;
#X floatatom 144 183 5 0 0 0 - - -;
#X floatatom 129 264 5 0 0 0 - - -;
#X floatatom 215 265 5 0 0 0 - - -;
#X obj 144 161 mtof;
#X obj 129 284 bng 15 250 50 0 empty empty empty 17 7 0 10 -262144
-1 -1;
#X obj 215 285 bng 15 250 50 0 empty empty empty 17 7 0 10 -262144
-1 -1;
#X obj 150 334 change;
#X msg 129 303 1;
#X msg 215 305 0;
#X text 183 180 analyzed frequency in hz;
#X text 133 79 mic input;
#X text 49 263 matched freq;
#X text 249 263 unmatched freq;
#X text 256 565 first click here;
#X text 23 570 then click here;
#X obj 141 237 split 120 220;
#X text 155 404 start/stop camera;
#X obj 35 323 delay 300;
#X text 44 17 start audio and talk into the mic;
#X text 230 235 here finetune your voice frequency min/max;
#X connect 0 0 18 0;
#X connect 1 0 0 0;
#X connect 2 0 3 0;
#X connect 3 0 8 0;
#X connect 5 0 4 0;
#X connect 6 0 4 0;
#X connect 7 0 4 0;
#X connect 8 0 11 0;
#X connect 9 0 3 0;
#X connect 9 0 4 0;
#X connect 10 0 9 0;
#X connect 12 0 2 0;
#X connect 13 0 14 0;
#X connect 14 0 0 0;
#X connect 15 0 30 0;
#X connect 16 0 19 0;
#X connect 17 0 20 0;
#X connect 18 0 15 0;
#X connect 19 0 22 0;
#X connect 19 0 32 0;
#X connect 20 0 23 0;
#X connect 21 0 12 0;
#X connect 22 0 21 0;
#X connect 23 0 21 0;
#X connect 30 0 16 0;
#X connect 30 1 17 0;
#X connect 32 0 20 0;
