#N canvas 385 245 978 484 10;
#X obj 158 38 openpanel;
#X obj 158 15 bng 15 250 50 0 empty empty empty 17 7 0 10 -262144 -1
-1;
#X msg 158 60 read -resize \$1 sf1;
#X obj 158 112 table sf1;
#X obj 179 338 index~ sf1;
#X obj 271 243 bng 15 250 50 0 empty empty empty 17 7 0 10 -262144
-1 -1;
#X obj 271 267 count~;
#X obj 315 449 dac~ 1 2 3 4 5 6;
#X obj 179 364 *~;
#X obj 246 364 *~;
#X obj 313 364 *~;
#X obj 380 364 *~;
#X obj 447 364 *~;
#X obj 514 364 *~;
#X obj 246 338 index~ sf2;
#X obj 313 338 index~ sf3;
#X obj 380 338 index~ sf4;
#X obj 447 338 index~ sf5;
#X obj 514 338 index~ sf6;
#X obj 285 39 openpanel;
#X obj 285 16 bng 15 250 50 0 empty empty empty 17 7 0 10 -262144 -1
-1;
#X obj 285 84 soundfiler;
#X obj 411 38 openpanel;
#X obj 411 15 bng 15 250 50 0 empty empty empty 17 7 0 10 -262144 -1
-1;
#X obj 411 83 soundfiler;
#X obj 537 38 openpanel;
#X obj 537 15 bng 15 250 50 0 empty empty empty 17 7 0 10 -262144 -1
-1;
#X obj 537 83 soundfiler;
#X obj 664 39 openpanel;
#X obj 664 16 bng 15 250 50 0 empty empty empty 17 7 0 10 -262144 -1
-1;
#X obj 664 84 soundfiler;
#X obj 790 38 openpanel;
#X obj 790 15 bng 15 250 50 0 empty empty empty 17 7 0 10 -262144 -1
-1;
#X obj 790 83 soundfiler;
#X msg 285 61 read -resize \$1 sf2;
#X obj 285 113 table sf2;
#X obj 411 112 table sf3;
#X obj 537 112 table sf4;
#X obj 664 113 table sf5;
#X obj 790 112 table sf6;
#X msg 411 60 read -resize \$1 sf3;
#X msg 537 60 read -resize \$1 sf4;
#X msg 664 61 read -resize \$1 sf5;
#X msg 790 60 read -resize \$1 sf6;
#X obj 632 238 dbtorms;
#X obj 632 288 line~;
#X obj 632 263 pack 0 50;
#X floatatom 632 214 5 0 0 0 volume_(db) - -;
#X obj 158 83 soundfiler;
#X obj 783 221 loadbang;
#X msg 784 241 100;
#X obj 635 191 hsl 128 15 0 127 0 0 empty empty empty -2 -8 0 10 -262144
-1 -1 9500 1;
#X text 436 449 need soundcard with at least 6 channels;
#X connect 0 0 2 0;
#X connect 1 0 0 0;
#X connect 2 0 48 0;
#X connect 4 0 8 0;
#X connect 5 0 6 0;
#X connect 6 0 4 0;
#X connect 6 0 14 0;
#X connect 6 0 15 0;
#X connect 6 0 16 0;
#X connect 6 0 17 0;
#X connect 6 0 18 0;
#X connect 8 0 7 0;
#X connect 9 0 7 1;
#X connect 10 0 7 2;
#X connect 11 0 7 3;
#X connect 12 0 7 4;
#X connect 13 0 7 5;
#X connect 14 0 9 0;
#X connect 15 0 10 0;
#X connect 16 0 11 0;
#X connect 17 0 12 0;
#X connect 18 0 13 0;
#X connect 19 0 34 0;
#X connect 20 0 19 0;
#X connect 22 0 40 0;
#X connect 23 0 22 0;
#X connect 25 0 41 0;
#X connect 26 0 25 0;
#X connect 28 0 42 0;
#X connect 29 0 28 0;
#X connect 31 0 43 0;
#X connect 32 0 31 0;
#X connect 34 0 21 0;
#X connect 40 0 24 0;
#X connect 41 0 27 0;
#X connect 42 0 30 0;
#X connect 43 0 33 0;
#X connect 44 0 46 0;
#X connect 45 0 8 1;
#X connect 45 0 9 1;
#X connect 45 0 10 1;
#X connect 45 0 11 1;
#X connect 45 0 12 1;
#X connect 45 0 13 1;
#X connect 46 0 45 0;
#X connect 47 0 44 0;
#X connect 49 0 50 0;
#X connect 50 0 51 0;
#X connect 51 0 47 0;
