#N canvas 364 22 901 554 10;
#X msg 248 156 start;
#X msg 248 179 stop;
#X obj 325 459 dac~ 1 2 3 4 5 6;
#X obj 189 374 *~;
#X obj 256 374 *~;
#X obj 323 374 *~;
#X obj 390 374 *~;
#X obj 457 374 *~;
#X obj 524 374 *~;
#X obj 642 248 dbtorms;
#X obj 642 298 line~;
#X obj 642 273 pack 0 50;
#X floatatom 642 224 5 0 0 0 volume_(db) - -;
#X obj 793 231 loadbang;
#X msg 794 251 100;
#X obj 645 201 hsl 128 15 0 127 0 0 empty empty empty -2 -8 0 10 -262144
-1 -1 9200 1;
#X text 446 459 need soundcard with at least 6 channels;
#X obj 239 225 readsf~ 6 1e+06;
#X obj 359 226 print;
#X obj 210 77 openpanel;
#X obj 210 58 bng 15 250 50 0 empty empty empty 17 7 0 10 -262144 -1
-1;
#X msg 210 98 open \$1;
#X text 214 39 load a 5.1 soundfile;
#X text 260 139 (to start a second time do open again before);
#X text 358 208 bang when done;
#X connect 0 0 17 0;
#X connect 1 0 17 0;
#X connect 3 0 2 0;
#X connect 4 0 2 1;
#X connect 5 0 2 2;
#X connect 6 0 2 3;
#X connect 7 0 2 4;
#X connect 8 0 2 5;
#X connect 9 0 11 0;
#X connect 10 0 3 1;
#X connect 10 0 4 1;
#X connect 10 0 5 1;
#X connect 10 0 6 1;
#X connect 10 0 7 1;
#X connect 10 0 8 1;
#X connect 11 0 10 0;
#X connect 12 0 9 0;
#X connect 13 0 14 0;
#X connect 14 0 15 0;
#X connect 15 0 12 0;
#X connect 17 0 3 0;
#X connect 17 1 4 0;
#X connect 17 2 5 0;
#X connect 17 3 6 0;
#X connect 17 4 7 0;
#X connect 17 5 8 0;
#X connect 17 6 18 0;
#X connect 19 0 21 0;
#X connect 20 0 19 0;
#X connect 21 0 17 0;
