#N canvas 255 22 1052 770 16;
#X declare -lib mrpeach;
#X obj 63 41 import mrpeach;
#X obj 74 280 udpsend;
#X obj 144 220 packOSC;
#X msg 35 161 disconnect;
#X obj 740 251 fiddle~;
#X obj 739 183 adc~;
#X floatatom 729 305 5 0 0 0 - - -;
#X obj 810 389 dac~;
#X obj 727 346 mtof;
#X floatatom 725 379 5 0 0 0 - - -;
#X obj 794 335 *~ 0.1;
#X obj 58 461 unpackOSC;
#X obj 60 498 print;
#X obj 19 502 bng 15 250 50 0 empty empty empty 17 7 0 10 -262144 -1
-1;
#X floatatom 846 302 5 0 1 0 - - -;
#X obj 82 588 osc~;
#X obj 77 698 dac~;
#X msg 144 194 send /fredrik /freq \$1;
#X msg 24 120 connect 194.95.203.255 8877;
#X obj 58 411 udpreceive 8877;
#X obj 304 396 route /fredrik;
#X obj 304 426 route /freq;
#X floatatom 306 457 5 0 0 0 - - -;
#X obj 88 667 *~ 0.1;
#X floatatom 161 678 5 0 0 0 - - -;
#X obj 438 571 bng 15 250 50 0 empty empty empty 17 7 0 10 -262144
-1 -1;
#X obj 438 670 tgl 15 0 empty empty empty 17 7 0 10 -262144 -1 -1 0
1;
#X msg 463 632 0;
#X msg 416 632 1;
#X obj 88 635 *~;
#X obj 323 688 line~;
#X msg 323 658 \$1 40;
#X obj 463 599 delay 600;
#X obj 69 557 + 200;
#X obj 145 588 osc~;
#X obj 208 591 osc~;
#X obj 132 557 - 200;
#X obj 195 560 + 40;
#X obj 674 617 pipe 100;
#X obj 673 689 mapping/smooth;
#X msg 39 82 connect 127.0.0.1 8877;
#X obj 677 583 + 300;
#X text 763 614 postpone;
#X text 739 580 transpose;
#X text 827 688 smooth;
#X text 985 650 scale;
#X text 566 456 what more can you do to the data here?;
#X text 565 484 transpose and delay are two obvious options;
#X text 564 511 also round \, smooth \, add distortion \, add noise
;
#X text 564 538 sample&hold \, skip \, invert \, etc;
#X text 246 558 make a chord;
#X text 303 714 line~ works like an envelope;
#X text 274 77 use this to test locally on one machine;
#X text 313 115 use this to broadcast to many;
#X obj 675 651 maxlib/scale 300 600 100 10000;
#X connect 2 0 1 0;
#X connect 3 0 1 0;
#X connect 4 0 6 0;
#X connect 5 0 4 0;
#X connect 5 0 10 0;
#X connect 6 0 8 0;
#X connect 8 0 9 0;
#X connect 9 0 17 0;
#X connect 10 0 7 0;
#X connect 10 0 7 1;
#X connect 11 0 13 0;
#X connect 11 0 12 0;
#X connect 11 0 20 0;
#X connect 14 0 10 1;
#X connect 15 0 29 0;
#X connect 17 0 2 0;
#X connect 18 0 1 0;
#X connect 19 0 11 0;
#X connect 20 0 21 0;
#X connect 21 0 22 0;
#X connect 22 0 25 0;
#X connect 22 0 33 0;
#X connect 22 0 37 0;
#X connect 22 0 36 0;
#X connect 23 0 16 0;
#X connect 23 0 16 1;
#X connect 24 0 23 1;
#X connect 25 0 28 0;
#X connect 25 0 32 0;
#X connect 26 0 31 0;
#X connect 27 0 26 0;
#X connect 28 0 26 0;
#X connect 29 0 23 0;
#X connect 30 0 29 1;
#X connect 31 0 30 0;
#X connect 32 0 27 0;
#X connect 33 0 15 0;
#X connect 34 0 29 0;
#X connect 35 0 29 0;
#X connect 36 0 34 0;
#X connect 37 0 35 0;
#X connect 40 0 1 0;
