#N canvas 442 22 919 812 16;
#X declare -lib mrpeach;
#X obj 87 34 import mrpeach;
#X obj 98 421 udpsend;
#X obj 135 351 packOSC;
#X msg 44 270 disconnect;
#X obj 564 115 fiddle~;
#X obj 563 47 adc~;
#X floatatom 559 177 5 0 0 0 - - -;
#X obj 504 399 dac~;
#X obj 559 209 mtof;
#X floatatom 557 242 5 0 0 0 - - -;
#X obj 488 345 *~ 0.1;
#X obj 82 573 udpreceive 8876;
#X obj 82 602 unpackOSC;
#X obj 82 637 print;
#X obj 43 643 bng 15 250 50 0 empty empty empty 17 7 0 10 -262144 -1
-1;
#X floatatom 518 316 5 0 1 0 - - -;
#X msg 26 115 connect 194.95.203.255 8876;
#X obj 226 669 osc~;
#X floatatom 228 633 5 0 0 0 - - -;
#X obj 222 756 dac~;
#X text 552 20 audio input;
#X text 648 113 pitch tracking;
#X text 619 173 pitch in midinotes;
#X text 625 242 pitch in Hertz;
#X text 623 206 convert midi to Hz;
#X text 19 84 x.x.x.255 is magic broadcast address;
#X text 578 318 audio input monitor volume;
#X text 500 428 listen to what comes in;
#X text 39 453 broadcast pitch via network to all;
#X msg 135 322 send /fredrik /freq \$1;
#X obj 46 694 route /fredrik;
#X obj 47 731 route /freq;
#X obj 248 716 *~ 0.1;
#X floatatom 278 687 5 0 1 0 - - -;
#X text 338 689 sine tone volume;
#X text 202 776 listen to pitch remotely;
#X msg 30 200 connect 127.0.0.1 8876;
#X text 11 171 use this for testing locally one 1 machine;
#X connect 2 0 1 0;
#X connect 3 0 1 0;
#X connect 4 0 6 0;
#X connect 5 0 4 0;
#X connect 5 0 10 0;
#X connect 6 0 8 0;
#X connect 8 0 9 0;
#X connect 9 0 29 0;
#X connect 10 0 7 0;
#X connect 10 0 7 1;
#X connect 11 0 12 0;
#X connect 12 0 14 0;
#X connect 12 0 13 0;
#X connect 12 0 30 0;
#X connect 15 0 10 1;
#X connect 16 0 1 0;
#X connect 17 0 32 0;
#X connect 18 0 17 0;
#X connect 29 0 2 0;
#X connect 30 0 31 0;
#X connect 31 0 18 0;
#X connect 32 0 19 0;
#X connect 32 0 19 1;
#X connect 33 0 32 1;
#X connect 36 0 1 0;
