#N canvas 77 22 1296 826 16;
#X declare -lib mrpeach;
#X obj 417 -11 pix_video;
#X obj 417 -44 gemhead;
#X obj -87 293 gemwin;
#X msg -51 220 create;
#X msg -46 251 destroy;
#X obj 422 27 pix_texture;
#X obj 422 56 rectangle 4 3;
#X obj -89 259 tgl 15 0 empty empty empty 17 7 0 10 -262144 -1 -1 0
1;
#X msg 521 -17 dimen 640 480;
#X obj 109 156 pix_data;
#X floatatom 187 188 5 0 0 0 - - -;
#X obj 108 122 t b a;
#X obj 93 229 color;
#X obj 93 202 gemhead;
#X obj 93 283 square 0.2;
#X obj 291 257 -;
#X obj 289 224 t f f;
#X obj 291 283 abs;
#X obj 229 346 hsl 128 15 0 1 0 0 empty empty empty -2 -8 0 10 -262144
-1 -1 0 1;
#X floatatom 217 317 5 0 0 0 - - -;
#X msg -77 365 frame 60;
#X obj -89 452 import mrpeach;
#X obj -83 715 udpsend;
#X obj -70 682 packOSC;
#X msg -88 579 disconnect;
#X obj 415 161 pix_data;
#X floatatom 493 193 5 0 0 0 - - -;
#X obj 414 134 t b a;
#X obj 393 229 color;
#X obj 393 202 gemhead;
#X obj 393 281 square 0.2;
#X obj 583 255 -;
#X obj 581 222 t f f;
#X obj 583 281 abs;
#X obj 529 346 hsl 128 15 0 1 0 0 empty empty empty -2 -8 0 10 -262144
-1 -1 0 1;
#X floatatom 517 317 5 0 0 0 - - -;
#X msg 517 367 send /fredrik /middle \$1;
#X obj 720 151 pix_data;
#X floatatom 798 183 5 0 0 0 - - -;
#X obj 720 124 t b a;
#X obj 698 219 color;
#X obj 698 192 gemhead;
#X obj 698 271 square 0.2;
#X obj 888 243 -;
#X obj 886 210 t f f;
#X obj 888 269 abs;
#X obj 834 336 hsl 128 15 0 1 0 0 empty empty empty -2 -8 0 10 -262144
-1 -1 0 1;
#X floatatom 822 307 5 0 0 0 - - -;
#X msg 217 367 send /fredrik /left \$1;
#X msg 822 358 send /fredrik /right \$1;
#X msg -101 532 connect 194.95.203.255 8877;
#X obj 676 730 dac~;
#X obj 756 512 change;
#X obj 757 482 > 0.1;
#X obj 756 539 tgl 15 0 empty empty empty 17 7 0 10 -262144 -1 -1 0
1;
#X obj 756 587 line~;
#X msg 756 560 \$1 20;
#X obj 755 650 *~;
#X obj 755 622 osc~ 700;
#X msg -100 500 connect 127.0.0.1 8877;
#X obj -73 337 loadbang;
#X msg 165 123 0.25;
#X msg 217 124 0.5;
#X obj 205 156 loadbang;
#X msg 529 135 0.5;
#X obj 517 167 loadbang;
#X msg 833 125 0.5;
#X obj 821 157 loadbang;
#X text 127 97 left;
#X text 453 107 middle;
#X text 761 95 right;
#X msg 477 134 0.5;
#X msg 781 124 0.75;
#X obj 686 688 *~ 0.1;
#X obj 755 687 *~ 0.2;
#X obj 618 688 *~ 0.2;
#X obj 658 511 change;
#X obj 659 481 > 0.1;
#X obj 658 538 tgl 15 0 empty empty empty 17 7 0 10 -262144 -1 -1 0
1;
#X obj 658 586 line~;
#X msg 658 559 \$1 20;
#X obj 657 649 *~;
#X obj 553 514 change;
#X obj 554 484 > 0.1;
#X obj 553 541 tgl 15 0 empty empty empty 17 7 0 10 -262144 -1 -1 0
1;
#X obj 553 589 line~;
#X msg 553 562 \$1 20;
#X obj 552 652 *~;
#X obj 266 593 route /fredrik;
#X obj 266 625 route /left /middle /right;
#X obj 266 538 udpreceive 8877;
#X obj 266 565 unpackOSC;
#X floatatom 264 655 5 0 0 0 - - -;
#X floatatom 347 655 5 0 0 0 - - -;
#X floatatom 428 654 5 0 0 0 - - -;
#X obj 93 257 translateXYZ -2 0 0;
#X obj 393 255 translateXYZ 0 0 0;
#X obj 698 245 translateXYZ 2 0 0;
#X obj 552 624 osc~ 500;
#X obj 657 621 osc~ 600;
#X obj 948 667 -;
#X obj 946 634 t f f;
#X obj 948 693 abs;
#X text 912 602 between successive values;
#X text 913 576 this calcualtes difference;
#X connect 0 0 5 0;
#X connect 0 0 11 0;
#X connect 0 0 27 0;
#X connect 0 0 39 0;
#X connect 1 0 0 0;
#X connect 3 0 2 0;
#X connect 4 0 2 0;
#X connect 5 0 6 0;
#X connect 7 0 2 0;
#X connect 8 0 0 0;
#X connect 9 1 12 1;
#X connect 9 2 10 0;
#X connect 10 0 16 0;
#X connect 11 0 9 0;
#X connect 11 1 9 1;
#X connect 12 0 95 0;
#X connect 13 0 12 0;
#X connect 15 0 17 0;
#X connect 16 0 15 1;
#X connect 16 1 15 0;
#X connect 17 0 18 0;
#X connect 17 0 19 0;
#X connect 19 0 48 0;
#X connect 20 0 2 0;
#X connect 23 0 22 0;
#X connect 24 0 22 0;
#X connect 25 1 28 1;
#X connect 25 2 26 0;
#X connect 26 0 32 0;
#X connect 27 0 25 0;
#X connect 27 1 25 1;
#X connect 28 0 96 0;
#X connect 29 0 28 0;
#X connect 31 0 33 0;
#X connect 32 0 31 1;
#X connect 32 1 31 0;
#X connect 33 0 34 0;
#X connect 33 0 35 0;
#X connect 35 0 36 0;
#X connect 36 0 23 0;
#X connect 37 1 40 1;
#X connect 37 2 38 0;
#X connect 38 0 44 0;
#X connect 39 0 37 0;
#X connect 39 1 37 1;
#X connect 40 0 97 0;
#X connect 41 0 40 0;
#X connect 43 0 45 0;
#X connect 44 0 43 1;
#X connect 44 1 43 0;
#X connect 45 0 46 0;
#X connect 45 0 47 0;
#X connect 47 0 49 0;
#X connect 48 0 23 0;
#X connect 49 0 23 0;
#X connect 50 0 22 0;
#X connect 52 0 54 0;
#X connect 53 0 52 0;
#X connect 54 0 56 0;
#X connect 55 0 57 1;
#X connect 56 0 55 0;
#X connect 57 0 74 0;
#X connect 58 0 57 0;
#X connect 59 0 22 0;
#X connect 60 0 20 0;
#X connect 61 0 9 2;
#X connect 62 0 9 3;
#X connect 63 0 61 0;
#X connect 63 0 62 0;
#X connect 64 0 25 3;
#X connect 65 0 71 0;
#X connect 65 0 64 0;
#X connect 66 0 37 3;
#X connect 67 0 72 0;
#X connect 67 0 66 0;
#X connect 71 0 25 2;
#X connect 72 0 37 2;
#X connect 73 0 51 0;
#X connect 73 0 51 1;
#X connect 74 0 51 1;
#X connect 75 0 51 0;
#X connect 76 0 78 0;
#X connect 77 0 76 0;
#X connect 78 0 80 0;
#X connect 79 0 81 1;
#X connect 80 0 79 0;
#X connect 81 0 73 0;
#X connect 82 0 84 0;
#X connect 83 0 82 0;
#X connect 84 0 86 0;
#X connect 85 0 87 1;
#X connect 86 0 85 0;
#X connect 87 0 75 0;
#X connect 88 0 89 0;
#X connect 89 0 92 0;
#X connect 89 1 93 0;
#X connect 89 2 94 0;
#X connect 90 0 91 0;
#X connect 91 0 88 0;
#X connect 92 0 83 0;
#X connect 93 0 77 0;
#X connect 94 0 53 0;
#X connect 95 0 14 0;
#X connect 96 0 30 0;
#X connect 97 0 42 0;
#X connect 98 0 87 0;
#X connect 99 0 81 0;
#X connect 100 0 102 0;
#X connect 101 0 100 1;
#X connect 101 1 100 0;
