#N canvas 422 22 816 525 24;
#X obj 71 46 adc~;
#X obj 45 342 dac~;
#X obj 70 208 delay~ 44100;
#X floatatom 234 159 10 0 0 0 - - -;
#X obj 235 111 * 44100;
#X floatatom 235 57 5 0 0 0 - - -;
#X obj 221 278 send~ echo;
#X obj 221 328 receive~ echo;
#X obj 221 378 delay~ 44100;
#X obj 218 424 *~ 0.5;
#X obj 445 356 * 44100;
#X floatatom 455 312 5 0 0 0 - - -;
#X text 314 49 delay time in seconds (use 0.283);
#X text 444 270 echo time in seconds;
#X obj 74 136 +~;
#X floatatom 397 437 5 0 0 0 - - -;
#X text 478 435 echo amplitude;
#X obj 462 135 loadbang;
#X msg 457 178 0.283;
#X msg 542 185 0.1;
#X connect 0 0 14 0;
#X connect 2 0 1 0;
#X connect 2 0 1 1;
#X connect 2 0 6 0;
#X connect 3 0 2 1;
#X connect 4 0 3 0;
#X connect 5 0 4 0;
#X connect 7 0 8 0;
#X connect 8 0 9 0;
#X connect 9 0 14 1;
#X connect 10 0 8 1;
#X connect 11 0 10 0;
#X connect 14 0 2 0;
#X connect 15 0 9 1;
#X connect 17 0 18 0;
#X connect 17 0 19 0;
#X connect 18 0 5 0;
#X connect 19 0 11 0;
#X connect 19 0 15 0;
