#N canvas 516 40 869 558 24;
#X obj 111 51 adc~;
#X obj 193 475 dac~;
#X obj 80 246 delay~ 44100;
#X obj 275 248 delay~ 44100;
#X obj 475 249 delay~ 44100;
#X obj 96 372 *~ 0.1;
#X obj 479 378 *~ 0.3;
#X obj 191 179 * 44100;
#X obj 373 186 * 44100;
#X obj 573 190 * 44100;
#X floatatom 185 137 5 0 0 0 - - -;
#X floatatom 369 144 5 0 0 0 - - -;
#X floatatom 569 149 5 0 0 0 - - -;
#X obj 274 371 *~ 0.8;
#X floatatom 168 324 5 0 1.5 0 amp - -;
#X floatatom 332 323 5 0 1.5 0 amp - -;
#X floatatom 552 329 5 0 1.5 0 amp - -;
#X obj 353 37 loadbang;
#X msg 308 79 0.1;
#X msg 374 81 0.283;
#X msg 467 78 0.5;
#X connect 0 0 2 0;
#X connect 0 0 3 0;
#X connect 0 0 4 0;
#X connect 2 0 5 0;
#X connect 3 0 13 0;
#X connect 4 0 6 0;
#X connect 5 0 1 0;
#X connect 5 0 1 1;
#X connect 6 0 1 0;
#X connect 6 0 1 1;
#X connect 7 0 2 1;
#X connect 8 0 3 1;
#X connect 9 0 4 1;
#X connect 10 0 7 0;
#X connect 11 0 8 0;
#X connect 12 0 9 0;
#X connect 13 0 1 0;
#X connect 13 0 1 1;
#X connect 14 0 5 1;
#X connect 15 0 13 1;
#X connect 16 0 6 1;
#X connect 17 0 18 0;
#X connect 17 0 19 0;
#X connect 17 0 20 0;
#X connect 18 0 10 0;
#X connect 19 0 11 0;
#X connect 20 0 12 0;
