#N canvas 504 22 959 711 10;
#X obj 48 19 gemhead;
#X obj 29 505 gemwin;
#X msg 36 478 create;
#X msg 88 477 destroy;
#X obj 13 479 tgl 15 0 empty empty empty 17 7 0 10 -262144 -1 -1 0
1;
#X obj 70 355 rectangle 4 3;
#X obj 70 323 pix_texture;
#X obj 196 177 pix_data;
#X obj 46 43 pix_video;
#X obj 294 394 color;
#X obj 281 342 gemhead;
#X msg 331 361 \$1 \$1 \$1;
#X obj 240 88 loadbang;
#X msg 237 114 0.1;
#X obj 294 419 translateXYZ;
#X obj 294 449 circle 0.1;
#X obj 423 184 pix_data;
#X obj 521 401 color;
#X obj 508 349 gemhead;
#X msg 559 369 \$1 \$1 \$1;
#X obj 467 95 loadbang;
#X obj 521 426 translateXYZ;
#X obj 521 456 circle 0.1;
#X obj 622 184 pix_data;
#X obj 720 401 color;
#X obj 707 349 gemhead;
#X msg 762 365 \$1 \$1 \$1;
#X obj 666 95 loadbang;
#X obj 720 426 translateXYZ;
#X obj 720 456 circle 0.1;
#X msg 663 121 0.9;
#X obj 314 20 t b a b a b a;
#X msg 464 121 0.5;
#X obj 52 127 t a a;
#X obj 63 200 pix_diff;
#X obj 17 158 pix_separator;
#X obj 106 158 pix_separator;
#X floatatom 394 299 5 0 0 0 - - -;
#X obj 343 306 > 0.05;
#X floatatom 622 307 5 0 0 0 - - -;
#X obj 571 314 > 0.05;
#X floatatom 819 307 5 0 0 0 - - -;
#X obj 768 314 > 0.05;
#X obj 343 327 change;
#X floatatom 397 331 5 0 0 0 - - -;
#X obj 571 337 change;
#X floatatom 625 341 5 0 0 0 - - -;
#X obj 766 340 change;
#X floatatom 820 344 5 0 0 0 - - -;
#X floatatom 823 271 5 0 0 0 - - -;
#X obj 503 579 match 1 2 3;
#X obj 505 610 bng 15 250 50 0 empty empty empty 17 7 0 10 -262144
-1 -1;
#X obj 456 606 print;
#X obj 683 609 bng 15 250 50 0 empty empty empty 17 7 0 10 -262144
-1 -1;
#X obj 634 605 print;
#X obj 681 578 match 3 2 1;
#X msg 393 485 1;
#X msg 522 486 2;
#X msg 723 488 3;
#X obj 757 489 sel 1;
#X obj 556 487 sel 1;
#X obj 428 485 sel 1;
#X obj 131 249 loadbang;
#X obj 65 223 pix_flip;
#X msg 124 217 horizontal;
#X obj 245 492 loadbang;
#X obj 200 461 pix_delay 4;
#X msg 247 514 4;
#X obj 223 666 dac~;
#X obj 258 618 osc~ 400;
#X obj 274 641 *~;
#X obj 261 590 vline~;
#X msg 263 566 1 10 \, 0 100 100;
#X msg 28 543 frame 60;
#X obj 49 75 pix_motionblur;
#X floatatom 144 79 5 0 0 0 - - -;
#X obj 179 640 *~;
#X obj 157 592 vline~;
#X msg 159 568 1 10 \, 0 100 100;
#X obj 163 617 osc~ 600;
#X floatatom 254 212 5 0 0 0 - - -;
#X floatatom 462 219 5 0 0 0 - - -;
#X floatatom 669 216 5 0 0 0 - - -;
#X msg 247 124 0.9;
#X msg 474 131 0.9;
#X msg 673 131 0.9;
#X obj 505 534 change;
#X msg 614 531 0;
#X msg 179 76 0.05;
#X obj 780 197 loadbang;
#X msg 845 229 0.05;
#X obj 50 101 pix_grey;
#X msg 110 44 dimen 160 120;
#X text 16 450 also turn on audio;
#X text 18 434 create window;
#X obj 353 377 maxlib/scale 0 1 -4 4;
#X obj 361 397 maxlib/scale 0 1 -3 3;
#X obj 580 384 maxlib/scale 0 1 -4 4;
#X obj 588 404 maxlib/scale 0 1 -3 3;
#X obj 779 384 maxlib/scale 0 1 -4 4;
#X obj 787 404 maxlib/scale 0 1 -3 3;
#X connect 0 0 8 0;
#X connect 2 0 1 0;
#X connect 3 0 1 0;
#X connect 4 0 1 0;
#X connect 6 0 5 0;
#X connect 7 2 80 0;
#X connect 8 0 74 0;
#X connect 9 0 14 0;
#X connect 10 0 9 0;
#X connect 11 0 9 1;
#X connect 12 0 13 0;
#X connect 12 0 83 0;
#X connect 13 0 7 2;
#X connect 13 0 95 0;
#X connect 14 0 15 0;
#X connect 16 2 81 0;
#X connect 17 0 21 0;
#X connect 18 0 17 0;
#X connect 19 0 17 1;
#X connect 20 0 32 0;
#X connect 20 0 84 0;
#X connect 21 0 22 0;
#X connect 23 2 82 0;
#X connect 24 0 28 0;
#X connect 25 0 24 0;
#X connect 26 0 24 1;
#X connect 27 0 30 0;
#X connect 27 0 85 0;
#X connect 28 0 29 0;
#X connect 30 0 23 2;
#X connect 30 0 99 0;
#X connect 31 0 7 0;
#X connect 31 1 7 1;
#X connect 31 2 16 0;
#X connect 31 3 16 1;
#X connect 31 4 23 0;
#X connect 31 5 23 1;
#X connect 32 0 16 2;
#X connect 32 0 97 0;
#X connect 33 0 35 0;
#X connect 33 1 36 0;
#X connect 34 0 63 0;
#X connect 35 0 34 1;
#X connect 36 0 34 0;
#X connect 37 0 38 1;
#X connect 38 0 43 0;
#X connect 39 0 40 1;
#X connect 40 0 45 0;
#X connect 41 0 42 1;
#X connect 42 0 47 0;
#X connect 43 0 44 0;
#X connect 43 0 11 0;
#X connect 43 0 61 0;
#X connect 45 0 46 0;
#X connect 45 0 19 0;
#X connect 45 0 60 0;
#X connect 47 0 48 0;
#X connect 47 0 26 0;
#X connect 47 0 59 0;
#X connect 49 0 41 0;
#X connect 49 0 39 0;
#X connect 49 0 37 0;
#X connect 50 0 52 0;
#X connect 50 0 51 0;
#X connect 51 0 72 0;
#X connect 51 0 87 0;
#X connect 53 0 78 0;
#X connect 53 0 87 0;
#X connect 55 0 54 0;
#X connect 55 0 53 0;
#X connect 56 0 86 0;
#X connect 57 0 86 0;
#X connect 58 0 86 0;
#X connect 59 0 58 0;
#X connect 60 0 57 0;
#X connect 61 0 56 0;
#X connect 62 0 64 0;
#X connect 62 0 88 0;
#X connect 63 0 31 0;
#X connect 63 0 6 0;
#X connect 64 0 63 0;
#X connect 65 0 67 0;
#X connect 67 0 66 1;
#X connect 69 0 70 0;
#X connect 70 0 68 1;
#X connect 71 0 70 1;
#X connect 72 0 71 0;
#X connect 73 0 1 0;
#X connect 74 0 91 0;
#X connect 75 0 74 1;
#X connect 76 0 68 0;
#X connect 77 0 76 1;
#X connect 78 0 77 0;
#X connect 79 0 76 0;
#X connect 80 0 38 0;
#X connect 81 0 40 0;
#X connect 82 0 42 0;
#X connect 83 0 7 3;
#X connect 83 0 96 0;
#X connect 84 0 16 3;
#X connect 84 0 98 0;
#X connect 85 0 23 3;
#X connect 85 0 100 0;
#X connect 86 0 50 0;
#X connect 86 0 55 0;
#X connect 87 0 86 0;
#X connect 88 0 75 0;
#X connect 89 0 90 0;
#X connect 90 0 49 0;
#X connect 91 0 33 0;
#X connect 92 0 8 0;
#X connect 95 0 14 1;
#X connect 96 0 14 2;
#X connect 97 0 21 1;
#X connect 98 0 21 2;
#X connect 99 0 28 1;
#X connect 100 0 28 2;
