#N canvas 0 22 577 394 10;
#X obj 411 304 dac~;
#X obj 407 161 bng 15 250 50 0 empty empty empty 17 7 0 10 -262144
-1 -1;
#X obj 401 70 record~ test;
#X obj 409 244 index~ test;
#N canvas 0 0 450 300 (subpatch) 0;
#X array test 44100 float 2;
#X coords 0 1 44100 -1 200 140 1;
#X restore 44 5 graph;
#X obj 416 27 adc~;
#X obj 457 31 tgl 15 0 empty empty empty 17 7 0 10 -262144 -1 -1 1
1;
#X obj 409 188 count~;
#X connect 1 0 7 0;
#X connect 3 0 0 0;
#X connect 3 0 0 1;
#X connect 5 0 2 0;
#X connect 6 0 2 0;
#X connect 7 0 3 0;
