#N canvas 537 22 880 617 16;
#X obj 125 82 pix_video;
#X obj 123 31 gemhead;
#X obj 138 490 gemwin;
#X msg 237 492 create;
#X msg 242 523 destroy;
#X obj 129 306 pix_texture;
#X obj 126 355 rectangle 4 3;
#X obj 136 456 tgl 15 0 empty empty empty 17 7 0 10 -262144 -1 -1 0
1;
#X msg 248 72 dimen 640 480;
#X obj 261 205 pix_data;
#X floatatom 342 242 5 0 0 0 - - -;
#X floatatom 310 168 5 0 0 0 - - -;
#X floatatom 372 167 5 0 0 0 - - -;
#X obj 294 276 unpack f f f;
#X floatatom 298 314 5 0 0 0 - - -;
#X floatatom 359 317 5 0 0 0 - - -;
#X floatatom 421 319 5 0 0 0 - - -;
#X obj 215 143 t b a;
#X text 403 241 greyscale;
#X text 298 349 red;
#X text 364 350 green;
#X text 431 349 blue;
#X obj 420 471 color;
#X obj 411 427 gemhead;
#X obj 418 513 square 0.2;
#X obj 447 71 loadbang;
#X msg 450 102 0.5;
#X obj 630 158 osc~ 400;
#X obj 635 256 dac~;
#X obj 637 214 *~ 0.5;
#X obj 580 399 hsl 128 15 0 1 0 0 empty empty empty -2 -8 0 10 -258113
-1 -1 0 1;
#X obj 582 438 hsl 128 15 0 1 0 0 empty empty empty -2 -8 0 10 -4034
-1 -1 0 1;
#X obj 583 473 hsl 128 15 0 1 0 0 empty empty empty -2 -8 0 10 -4160
-1 -1 0 1;
#X obj 620 20 autoscale 0 1;
#X floatatom 641 105 5 0 0 0 - - -;
#X text 618 303 turn on sound;
#X obj 622 54 maxlib/scale 0 1 300 900;
#X connect 0 0 5 0;
#X connect 0 0 17 0;
#X connect 1 0 0 0;
#X connect 3 0 2 0;
#X connect 4 0 2 0;
#X connect 5 0 6 0;
#X connect 7 0 2 0;
#X connect 8 0 0 0;
#X connect 9 1 13 0;
#X connect 9 1 22 1;
#X connect 9 2 10 0;
#X connect 11 0 9 2;
#X connect 12 0 9 3;
#X connect 13 0 14 0;
#X connect 13 1 15 0;
#X connect 13 2 16 0;
#X connect 14 0 30 0;
#X connect 15 0 31 0;
#X connect 16 0 32 0;
#X connect 16 0 33 0;
#X connect 17 0 9 0;
#X connect 17 1 9 1;
#X connect 22 0 24 0;
#X connect 23 0 22 0;
#X connect 25 0 26 0;
#X connect 26 0 12 0;
#X connect 26 0 11 0;
#X connect 27 0 29 0;
#X connect 29 0 28 0;
#X connect 29 0 28 1;
#X connect 33 0 36 0;
#X connect 36 0 27 0;
#X connect 36 0 34 0;
