#N canvas 284 22 1115 769 16;
#X obj 79 65 pix_video;
#X obj 79 32 gemhead;
#X obj 94 491 gemwin;
#X msg 193 493 create;
#X msg 198 524 destroy;
#X obj 85 307 pix_texture;
#X obj 82 356 rectangle 4 3;
#X obj 92 457 tgl 15 0 empty empty empty 17 7 0 10 -262144 -1 -1 1
1;
#X msg 204 73 dimen 640 480;
#X obj 468 180 pix_data;
#X floatatom 549 217 5 0 0 0 - - -;
#X floatatom 517 143 5 0 0 0 - - -;
#X floatatom 579 142 5 0 0 0 - - -;
#X obj 456 127 t b a;
#X text 610 216 greyscale;
#X obj 654 46 loadbang;
#X msg 657 77 0.5;
#X obj 70 229 pix_subtract;
#X obj 35 174 pix_separator;
#X obj 185 177 pix_separator;
#X obj 82 121 t a a;
#X obj 578 439 adc~;
#X obj 579 610 dac~;
#X obj 579 481 record~ move;
#X obj 544 480 tgl 15 0 empty empty empty 17 7 0 10 -262144 -1 -1 1
1;
#X obj 586 542 count~;
#X obj 557 545 bng 15 250 50 0 empty empty empty 17 7 0 10 -262144
-1 -1;
#X text 518 501 rec;
#X text 510 562 play;
#X obj 586 575 index~ move;
#N canvas 0 22 450 300 (subpatch) 0;
#X array move 44100 float 2;
#X coords 0 1 44099 -1 200 140 1;
#X restore 368 297 graph;
#X obj 584 268 > 0.01;
#X floatatom 655 270 5 0 0 0 - - -;
#X obj 584 310 change;
#X obj 587 342 sel 1;
#X msg 59 549 frame 60;
#X obj 818 182 pix_data;
#X floatatom 899 219 5 0 0 0 - - -;
#X floatatom 867 145 5 0 0 0 - - -;
#X floatatom 929 144 5 0 0 0 - - -;
#X obj 806 129 t b a;
#X text 960 218 greyscale;
#X obj 1004 48 loadbang;
#X msg 1007 79 0.5;
#X obj 928 441 adc~;
#X obj 929 612 dac~;
#X obj 894 482 tgl 15 0 empty empty empty 17 7 0 10 -262144 -1 -1 1
1;
#X obj 936 544 count~;
#X obj 907 547 bng 15 250 50 0 empty empty empty 17 7 0 10 -262144
-1 -1;
#X text 868 503 rec;
#X text 860 564 play;
#N canvas 0 22 450 300 (subpatch) 0;
#X array move2 44100 float 2;
#X coords 0 1 44099 -1 200 140 1;
#X restore 718 299 graph;
#X obj 934 270 > 0.01;
#X floatatom 1005 272 5 0 0 0 - - -;
#X obj 934 312 change;
#X obj 937 344 sel 1;
#X obj 929 483 record~ move2;
#X obj 936 577 index~ move2;
#X msg 568 90 0.25;
#X msg 948 85 0.75;
#X obj 75 260 pix_flip;
#X msg 173 270 horizontal;
#X text 621 669 turn on sound!;
#X connect 0 0 20 0;
#X connect 1 0 0 0;
#X connect 3 0 2 0;
#X connect 4 0 2 0;
#X connect 5 0 6 0;
#X connect 7 0 2 0;
#X connect 8 0 0 0;
#X connect 9 2 10 0;
#X connect 10 0 31 0;
#X connect 11 0 9 2;
#X connect 12 0 9 3;
#X connect 13 0 9 0;
#X connect 13 1 9 1;
#X connect 15 0 16 0;
#X connect 15 0 58 0;
#X connect 16 0 12 0;
#X connect 17 0 60 0;
#X connect 18 0 17 0;
#X connect 19 0 17 1;
#X connect 20 0 19 0;
#X connect 20 1 18 0;
#X connect 21 0 23 0;
#X connect 24 0 23 0;
#X connect 25 0 29 0;
#X connect 26 0 25 0;
#X connect 29 0 22 0;
#X connect 29 0 22 1;
#X connect 31 0 33 0;
#X connect 32 0 31 1;
#X connect 33 0 34 0;
#X connect 34 0 26 0;
#X connect 35 0 2 0;
#X connect 36 2 37 0;
#X connect 37 0 52 0;
#X connect 38 0 36 2;
#X connect 39 0 36 3;
#X connect 40 0 36 0;
#X connect 40 1 36 1;
#X connect 42 0 43 0;
#X connect 42 0 59 0;
#X connect 43 0 39 0;
#X connect 44 0 56 0;
#X connect 46 0 56 0;
#X connect 47 0 57 0;
#X connect 48 0 47 0;
#X connect 52 0 54 0;
#X connect 53 0 52 1;
#X connect 54 0 55 0;
#X connect 55 0 48 0;
#X connect 57 0 45 0;
#X connect 57 0 45 1;
#X connect 58 0 11 0;
#X connect 59 0 38 0;
#X connect 60 0 5 0;
#X connect 60 0 13 0;
#X connect 60 0 40 0;
#X connect 61 0 60 0;
