#N canvas 670 22 549 514 10;
#X obj 117 32 gemhead;
#X obj 103 467 gemwin;
#X msg 110 439 create;
#X msg 162 439 destroy;
#X obj 87 441 tgl 15 0 empty empty empty 17 7 0 10 -262144 -1 -1 1
1;
#X obj 100 361 pix_texture;
#X obj 100 411 rectangle 4 3;
#X obj 121 107 t a a;
#X obj 103 190 pix_subtract;
#X obj 160 144 pix_separator;
#X obj 60 147 pix_separator;
#X obj 122 62 pix_video;
#X obj 122 83 pix_grey;
#X msg 207 48 dimen 640 480;
#X msg 157 476 frame 60;
#X connect 0 0 11 0;
#X connect 2 0 1 0;
#X connect 3 0 1 0;
#X connect 4 0 1 0;
#X connect 5 0 6 0;
#X connect 7 0 9 0;
#X connect 7 1 10 0;
#X connect 8 0 5 0;
#X connect 9 0 8 1;
#X connect 10 0 8 0;
#X connect 11 0 12 0;
#X connect 12 0 7 0;
#X connect 13 0 11 0;
#X connect 14 0 1 0;
