#N canvas 670 22 533 439 10;
#X obj 117 32 gemhead;
#X obj 121 337 gemwin;
#X msg 128 309 create;
#X msg 180 309 destroy;
#X obj 105 311 tgl 15 0 empty empty empty 17 7 0 10 -262144 -1 -1 0
1;
#X obj 118 272 rectangle 4 3;
#X obj 118 240 pix_texture;
#X msg 239 78 reset;
#X obj 118 189 pix_background;
#X msg 209 164 \$1 \$1 \$1;
#X floatatom 209 144 5 0 0 0 - - -;
#X obj 118 94 pix_video;
#X obj 373 257 pix_motionblur;
#X floatatom 468 247 5 0 0 0 - - -;
#X obj 283 150 loadbang;
#X msg 288 174 0.05;
#X msg 127 68 dimen 640 480;
#X text 369 223 optional a little blur;
#X text 231 50 hide from camera and then click reset;
#X connect 0 0 11 0;
#X connect 2 0 1 0;
#X connect 3 0 1 0;
#X connect 4 0 1 0;
#X connect 6 0 5 0;
#X connect 7 0 8 0;
#X connect 8 0 6 0;
#X connect 9 0 8 1;
#X connect 10 0 9 0;
#X connect 11 0 8 0;
#X connect 13 0 12 1;
#X connect 14 0 15 0;
#X connect 15 0 10 0;
#X connect 16 0 11 0;
