#N canvas 573 133 748 569 10;
#X obj 117 32 gemhead;
#X obj 121 327 gemwin;
#X msg 128 299 create;
#X msg 180 299 destroy;
#X obj 105 301 tgl 15 0 empty empty empty 17 7 0 10 -262144 -1 -1 1
1;
#X obj 116 69 pix_video;
#X obj 116 217 pix_texture;
#X obj 116 248 rectangle 4 3;
#X obj 116 128 pix_movement;
#X floatatom 199 119 5 0 0 0 - - -;
#X obj 115 97 pix_rgba;
#X text 171 95 convert from uyvy to rgba;
#X obj 331 160 loadbang;
#X obj 116 193 pix_mean_color;
#X floatatom 331 314 5 0 0 0 - - -;
#X floatatom 368 313 5 0 0 0 - - -;
#X floatatom 403 315 5 0 0 0 - - -;
#X obj 325 287 unpack f f f f;
#X floatatom 438 317 5 0 0 0 - - -;
#X obj 115 164 alpha;
#X obj 155 163 tgl 15 0 empty empty empty 17 7 0 10 -262144 -1 -1 1
1;
#X obj 566 420 vsl 15 128 0 1 0 0 empty empty empty 0 -9 0 10 -262144
-1 -1 0 1;
#X obj 564 396 mapping/smooth;
#X obj 611 345 loadbang;
#X floatatom 648 369 5 0 0 0 - - -;
#X text 314 335 mean red green blue alpha;
#X text 531 324 uses the alpha with some smoothing;
#X floatatom 595 444 5 0 0 0 - - -;
#X msg 611 366 0.1;
#X msg 331 181 0.15;
#X connect 0 0 5 0;
#X connect 2 0 1 0;
#X connect 3 0 1 0;
#X connect 4 0 1 0;
#X connect 5 0 10 0;
#X connect 6 0 7 0;
#X connect 8 0 19 0;
#X connect 9 0 8 1;
#X connect 10 0 8 0;
#X connect 12 0 29 0;
#X connect 13 0 6 0;
#X connect 13 1 17 0;
#X connect 17 0 14 0;
#X connect 17 1 15 0;
#X connect 17 2 16 0;
#X connect 17 3 18 0;
#X connect 18 0 22 0;
#X connect 19 0 13 0;
#X connect 20 0 19 1;
#X connect 22 0 21 0;
#X connect 22 0 27 0;
#X connect 23 0 28 0;
#X connect 24 0 22 1;
#X connect 28 0 24 0;
#X connect 29 0 9 0;
