#N canvas 766 129 450 300 10;
#X obj 79 16 adc~;
#X obj 86 256 dac~;
#X obj 91 221 *~ 1;
#X floatatom 155 204 5 0 2 0 amp - -;
#X obj 163 82 * 44100;
#X floatatom 173 45 5 0 0 0 - - -;
#X obj 90 109 delay~ 44100;
#X obj 86 64 +~;
#X obj 246 163 delay~ 44100;
#X obj 260 97 * 44100;
#X floatatom 270 60 5 0 0 0 - - -;
#X obj 116 141 send~ test;
#X obj 246 132 receive~ test;
#X obj 249 204 *~ 1;
#X floatatom 313 187 5 0 2 0 amp - -;
#X connect 0 0 7 0;
#X connect 2 0 1 0;
#X connect 2 0 1 1;
#X connect 3 0 2 1;
#X connect 4 0 6 1;
#X connect 5 0 4 0;
#X connect 6 0 2 0;
#X connect 6 0 11 0;
#X connect 7 0 6 0;
#X connect 8 0 13 0;
#X connect 9 0 8 1;
#X connect 10 0 9 0;
#X connect 12 0 8 0;
#X connect 13 0 7 1;
#X connect 14 0 13 1;
