#N canvas 125 70 515 309 10;
#X obj 62 36 inlet;
#X obj 62 79 pix_texture;
#X obj 62 260 rectangle 4 3;
#X obj 205 37 inlet;
#X text 62 13 video;
#X text 201 15 control;
#X obj 62 106 translateXYZ;
#X obj 62 132 ortho;
#X obj 62 155 rotateXYZ;
#X obj 62 179 scaleXYZ;
#X obj 336 157 loadbang;
#X text 339 198 default;
#X obj 62 58 spigot;
#X msg 336 177 w 4 \, h 4 \, visible 1;
#X obj 62 217 color 1 1 1;
#X obj 205 74 route tx ty tz rx ry rz sx sy w h visible color;
#X connect 0 0 12 0;
#X connect 1 0 6 0;
#X connect 3 0 15 0;
#X connect 6 0 7 0;
#X connect 7 0 8 0;
#X connect 8 0 9 0;
#X connect 9 0 14 0;
#X connect 10 0 13 0;
#X connect 12 0 1 0;
#X connect 13 0 15 0;
#X connect 14 0 2 0;
#X connect 15 0 6 1;
#X connect 15 1 6 2;
#X connect 15 2 6 3;
#X connect 15 3 8 1;
#X connect 15 4 8 2;
#X connect 15 5 8 3;
#X connect 15 6 9 1;
#X connect 15 7 9 2;
#X connect 15 8 2 1;
#X connect 15 9 2 2;
#X connect 15 10 12 1;
#X connect 15 11 14 1;
