#N canvas 125 70 426 250 10;
#X text 158 58 edit to match camera resolution;
#X obj 24 69 pix_video;
#X obj 24 27 gemhead;
#X obj 155 16 loadbang;
#X msg 155 37 dimen 640 480;
#X msg 205 120 dialog;
#X obj 24 194 outlet;
#X obj 24 134 pix_rgba;
#X text 215 144 click to select source etc;
#X text 27 214 video;
#X connect 1 0 7 0;
#X connect 2 0 1 0;
#X connect 3 0 4 0;
#X connect 4 0 1 0;
#X connect 5 0 1 0;
#X connect 7 0 6 0;
