#N canvas 625 22 767 748 10;
#X declare -lib mrpeach;
#X obj 407 525 dac~;
#X obj 438 338 bng 15 250 50 0 empty empty empty 17 7 0 10 -262144
-1 -1;
#N canvas 0 22 450 300 (subpatch) 0;
#X array papesLeft 73500 float 2;
#X coords 0 1 73500 -1 200 140 1;
#X restore 54 15 graph;
#X obj 407 409 count~;
#X obj 45 395 / 60;
#X msg 45 370 100;
#X obj 45 423 * 44100;
#X floatatom 45 451 8 0 0 0 - - -;
#X text 100 423 sample rate;
#X text 100 396 frames per second;
#X text 101 448 audio buffer size;
#X text 100 370 video buffer size;
#X text 346 18 turn on audio first;
#X obj 40 548 udpsend;
#X obj 40 521 packOSC;
#X msg 145 551 connect 127.0.0.1 9955;
#X text 84 648 open papes_1.pd in the background;
#X obj 151 520 loadbang;
#X obj 347 201 record~ papesLeft;
#X obj 357 224 record~ papesRight;
#N canvas 0 22 450 300 (subpatch) 0;
#X array papesRight 73500 float 2;
#X coords 0 1 73500 -1 200 140 1;
#X restore 57 174 graph;
#X text 24 347 calculate size of audio buffers above;
#X msg 491 141 /effect_sample rec;
#X obj 389 151 delay 1667;
#X obj 491 64 bng 15 250 50 0 empty empty empty 17 7 0 10 -262144 -1
-1;
#X text 490 43 start capture video&audio;
#X msg 381 126 1;
#X msg 389 170 0;
#X obj 407 465 index~ papesLeft;
#X obj 417 491 index~ papesRight;
#X text 460 335 start playback video&audio;
#X msg 484 415 /effect_sample xfade 1;
#X msg 483 436 /effect_sample goto 0;
#X obj 490 545 delay 1667;
#X msg 490 569 /effect_sample xfade 0;
#X obj 361 41 adc~;
#X obj 40 573 import mrpeach;
#X obj 325 677 * 44100;
#X obj 376 678 * 100;
#X msg 366 619 0.25;
#X msg 375 702 /effect_sample xfade 1 \, /effect_sample goto \$1;
#X msg 398 618 0.5;
#X msg 336 619 0;
#X floatatom 356 649 5 0 0 0 - - -;
#X msg 426 620 0.75;
#X msg 408 382 0;
#X connect 1 0 31 0;
#X connect 1 0 32 0;
#X connect 1 0 33 0;
#X connect 1 0 45 0;
#X connect 3 0 28 0;
#X connect 3 0 29 0;
#X connect 4 0 6 0;
#X connect 5 0 4 0;
#X connect 6 0 7 0;
#X connect 14 0 13 0;
#X connect 15 0 13 0;
#X connect 17 0 15 0;
#X connect 22 0 14 0;
#X connect 23 0 27 0;
#X connect 24 0 26 0;
#X connect 24 0 23 0;
#X connect 24 0 22 0;
#X connect 26 0 18 0;
#X connect 26 0 19 0;
#X connect 27 0 18 0;
#X connect 27 0 19 0;
#X connect 28 0 0 0;
#X connect 29 0 0 1;
#X connect 31 0 14 0;
#X connect 32 0 14 0;
#X connect 33 0 34 0;
#X connect 34 0 14 0;
#X connect 35 0 18 0;
#X connect 35 1 19 0;
#X connect 37 0 3 0;
#X connect 38 0 40 0;
#X connect 39 0 43 0;
#X connect 40 0 14 0;
#X connect 41 0 43 0;
#X connect 42 0 43 0;
#X connect 43 0 38 0;
#X connect 43 0 37 0;
#X connect 44 0 43 0;
#X connect 45 0 3 0;
