#N canvas 125 70 495 297 10;
#X obj 62 36 inlet;
#X obj 257 36 inlet;
#X text 62 13 video;
#X obj 75 218 outlet;
#X obj 112 124 pix_flip;
#X obj 257 111 sel 0 1 2 3;
#X msg 244 144 none;
#X msg 244 170 horizontal;
#X msg 246 199 vertical;
#X msg 250 228 both;
#X obj 75 166 pix_mix 0;
#X obj 157 36 inlet;
#X obj 112 76 pix_separator;
#X obj 19 76 pix_separator;
#X text 146 16 xfade (0-1);
#X text 244 15 control (0 \, 1 \, 2 \, 3);
#X text 74 237 video;
#X obj 358 84 loadbang;
#X text 426 107 default;
#X obj 257 66 route variant;
#X msg 358 109 variant 1;
#X connect 0 0 12 0;
#X connect 0 0 13 0;
#X connect 1 0 19 0;
#X connect 4 0 10 1;
#X connect 5 0 6 0;
#X connect 5 1 7 0;
#X connect 5 2 8 0;
#X connect 5 3 9 0;
#X connect 6 0 4 0;
#X connect 7 0 4 0;
#X connect 8 0 4 0;
#X connect 9 0 4 0;
#X connect 10 0 3 0;
#X connect 11 0 10 2;
#X connect 12 0 4 0;
#X connect 13 0 10 0;
#X connect 17 0 20 0;
#X connect 19 0 5 0;
#X connect 20 0 19 0;
