#N canvas 428 22 832 798 10;
#X declare -lib mrpeach;
#X obj 9 412 udpsend;
#X obj 9 385 packOSC;
#X msg 114 415 connect 127.0.0.1 9955;
#X text 53 512 open papes_1.pd in the background;
#X obj 120 384 loadbang;
#X obj 508 13 key;
#X obj 508 110 line;
#X msg 508 130 /effect_sample xfade \$1;
#X obj 508 72 tgl 15 0 empty empty empty 17 7 0 10 -262144 -1 -1 0
1;
#X msg 508 90 \$1 500;
#X msg 525 171 /effect_sample rec;
#X obj 654 18 keyup;
#X msg 540 197 /effect_sample rate 3;
#X text 418 199 e= speed*3;
#X obj 655 49 sel 101;
#X msg 681 199 /effect_sample rate 1;
#X msg 549 233 /effect_sample goto 0;
#X obj 508 48 sel 113 119 101 114 116;
#X msg 562 258 /effect_sample goto 50;
#X text 418 234 r= jump to beginning;
#X text 420 259 t= jump to 50%;
#X text 424 170 w= record;
#X text 411 70 q= fade in/out;
#X obj 512 291 key;
#X obj 512 388 line;
#X obj 512 350 tgl 15 0 empty empty empty 17 7 0 10 -262144 -1 -1 1
1;
#X msg 512 368 \$1 500;
#X text 415 348 a= fade in/out;
#X msg 512 408 /effect_flip xfade \$1;
#X msg 529 449 /effect_flip variant 3;
#X msg 536 471 /effect_flip variant 2;
#X msg 547 494 /effect_flip variant 1;
#X msg 560 516 /effect_flip variant 0;
#X obj 512 326 sel 97 115 100 102 103;
#X text 469 447 s= both;
#X text 462 472 d= vertical;
#X text 457 496 f= horizontal;
#X text 472 519 g= none;
#X obj 508 560 key;
#X obj 508 657 line;
#X obj 508 619 tgl 15 0 empty empty empty 17 7 0 10 -262144 -1 -1 0
1;
#X msg 508 637 \$1 500;
#X msg 508 677 /effect_delay xfade \$1;
#X text 411 617 y= fade in/out;
#X text 410 628 (or z);
#X text 476 735 c= med;
#X text 489 758 v= min;
#X text 465 716 x= max;
#X msg 525 718 /effect_delay frames 99;
#X msg 536 737 /effect_delay frames 50;
#X msg 549 760 /effect_delay frames 10;
#X obj 508 594 sel 121 122 120 99 118;
#X obj 145 55 key;
#X obj 145 152 line;
#X obj 145 89 sel 32;
#X msg 145 172 /output_rectangle color \$1 \$1 \$1;
#X text 34 113 space= mainfade;
#X obj 145 112 tgl 15 0 empty empty empty 17 7 0 10 -262144 -1 -1 0
1;
#X msg 145 132 \$1 2000;
#X obj 220 111 loadbang;
#X msg 220 133 set 1;
#X obj 9 437 import mrpeach;
#X connect 1 0 0 0;
#X connect 2 0 0 0;
#X connect 4 0 2 0;
#X connect 5 0 17 0;
#X connect 6 0 7 0;
#X connect 7 0 1 0;
#X connect 8 0 9 0;
#X connect 9 0 6 0;
#X connect 10 0 1 0;
#X connect 11 0 14 0;
#X connect 12 0 1 0;
#X connect 14 0 15 0;
#X connect 15 0 1 0;
#X connect 16 0 1 0;
#X connect 17 0 8 0;
#X connect 17 1 10 0;
#X connect 17 2 12 0;
#X connect 17 3 16 0;
#X connect 17 4 18 0;
#X connect 18 0 1 0;
#X connect 23 0 33 0;
#X connect 24 0 28 0;
#X connect 25 0 26 0;
#X connect 26 0 24 0;
#X connect 28 0 1 0;
#X connect 29 0 1 0;
#X connect 30 0 1 0;
#X connect 31 0 1 0;
#X connect 32 0 1 0;
#X connect 33 0 25 0;
#X connect 33 1 29 0;
#X connect 33 2 30 0;
#X connect 33 3 31 0;
#X connect 33 4 32 0;
#X connect 38 0 51 0;
#X connect 39 0 42 0;
#X connect 40 0 41 0;
#X connect 41 0 39 0;
#X connect 42 0 1 0;
#X connect 48 0 1 0;
#X connect 49 0 1 0;
#X connect 50 0 1 0;
#X connect 51 0 40 0;
#X connect 51 1 40 0;
#X connect 51 2 48 0;
#X connect 51 3 49 0;
#X connect 51 4 50 0;
#X connect 52 0 54 0;
#X connect 53 0 55 0;
#X connect 54 0 57 0;
#X connect 55 0 1 0;
#X connect 57 0 58 0;
#X connect 58 0 53 0;
#X connect 59 0 60 0;
#X connect 60 0 57 0;
