#N canvas 737 22 467 677 10;
#X declare -lib mrpeach;
#X obj 68 293 udpsend;
#X obj 68 266 packOSC;
#X msg 173 296 connect 127.0.0.1 9955;
#X text 112 393 open papes_1.pd in the background;
#X obj 179 265 loadbang;
#X obj 68 318 import mrpeach;
#X floatatom 64 71 5 0 0 0 - - -;
#X obj 63 11 adc~;
#X msg 54 175 /output_rectangle sx \$1;
#X msg 73 200 /output_rectangle sy \$1;
#X obj 237 86 metro 16;
#X obj 240 64 tgl 15 0 empty empty empty 17 7 0 10 -262144 -1 -1 0
1;
#X obj 67 46 fiddle~;
#X obj 58 110 line;
#X msg 59 90 \$1 100;
#X obj 283 462 adc~;
#X obj 284 494 env~;
#X floatatom 286 536 5 0 0 0 - - -;
#X msg 275 585 /effect_flip xfade \$1;
#X msg 247 610 /effect_flip variant 1;
#X text 120 43 pitch tracking;
#X text 317 493 amplitude tracking;
#X obj 55 140 maxlib/scale 45 80 0.1 1;
#X obj 286 557 maxlib/scale 60 90 0 1;
#X obj 286 515 split 60 90;
#X floatatom 369 522 5 0 0 0 - - -;
#X obj 145 104 split 45 80;
#X connect 1 0 0 0;
#X connect 2 0 0 0;
#X connect 4 0 2 0;
#X connect 6 0 14 0;
#X connect 7 0 12 0;
#X connect 8 0 1 0;
#X connect 9 0 1 0;
#X connect 10 0 6 0;
#X connect 11 0 10 0;
#X connect 12 0 6 0;
#X connect 13 0 26 0;
#X connect 14 0 13 0;
#X connect 15 0 16 0;
#X connect 16 0 24 0;
#X connect 17 0 23 0;
#X connect 18 0 1 0;
#X connect 19 0 1 0;
#X connect 22 0 8 0;
#X connect 22 0 9 0;
#X connect 23 0 18 0;
#X connect 24 0 17 0;
#X connect 24 1 25 0;
#X connect 26 0 22 0;
