#N canvas 677 44 456 437 10;
#X obj 62 36 inlet;
#X obj 257 36 inlet;
#X text 62 13 video;
#X obj 75 218 outlet;
#X obj 75 166 pix_mix 0;
#X obj 157 36 inlet;
#X obj 112 76 pix_separator;
#X obj 19 76 pix_separator;
#X text 146 16 xfade (0-1);
#X text 74 237 video;
#X obj 112 124 pix_buffer_read \$0-buf;
#X obj 167 150 timer;
#X obj 167 174 * 1;
#X obj 305 262 metro 16.6667;
#X obj 305 241 > 0;
#X obj 305 307 counter 0 99;
#X obj 281 390 pix_buffer \$0-buf 100;
#X text 244 15 control;
#X msg 355 95 set \$1;
#X obj 306 92 t b f;
#X msg 306 113 1;
#X obj 306 134 /;
#X obj 19 388 pix_buffer_write \$0-buf;
#X obj 98 302 spigot;
#X obj 98 328 counter 0 99;
#X obj 257 68 route direction rate goto rec;
#X obj 158 240 t b b;
#X msg 186 262 set 0;
#X msg 158 262 1;
#X obj 173 355 sel 99;
#X msg 173 375 0;
#X obj 112 101 t a b b a b;
#X obj 380 238 max 2;
#X connect 0 0 6 0;
#X connect 0 0 7 0;
#X connect 1 0 25 0;
#X connect 4 0 3 0;
#X connect 5 0 4 2;
#X connect 5 0 14 0;
#X connect 6 0 31 0;
#X connect 7 0 4 0;
#X connect 10 0 4 1;
#X connect 11 0 12 0;
#X connect 12 0 32 0;
#X connect 13 0 15 0;
#X connect 14 0 13 0;
#X connect 15 0 10 1;
#X connect 18 0 15 0;
#X connect 19 0 20 0;
#X connect 19 1 21 1;
#X connect 20 0 21 0;
#X connect 21 0 12 1;
#X connect 23 0 24 0;
#X connect 24 0 22 1;
#X connect 24 0 29 0;
#X connect 25 0 15 1;
#X connect 25 1 19 0;
#X connect 25 2 18 0;
#X connect 25 3 26 0;
#X connect 26 0 28 0;
#X connect 26 1 27 0;
#X connect 27 0 24 0;
#X connect 28 0 23 1;
#X connect 29 0 30 0;
#X connect 30 0 23 1;
#X connect 31 0 10 0;
#X connect 31 1 11 0;
#X connect 31 2 11 1;
#X connect 31 3 22 0;
#X connect 31 4 23 0;
#X connect 32 0 13 1;
