#N canvas 125 70 416 263 10;
#X obj 62 36 inlet;
#X obj 257 36 inlet;
#X text 62 13 video;
#X obj 75 218 outlet;
#X obj 75 166 pix_mix 0;
#X obj 157 36 inlet;
#X obj 112 76 pix_separator;
#X obj 19 76 pix_separator;
#X text 146 16 xfade (0-1);
#X text 74 237 video;
#X text 244 15 control (0-99);
#X obj 112 124 pix_delay 100;
#X obj 300 101 loadbang;
#X text 364 125 default;
#X obj 257 60 route frames;
#X msg 300 126 frames 50;
#X connect 0 0 6 0;
#X connect 0 0 7 0;
#X connect 1 0 14 0;
#X connect 4 0 3 0;
#X connect 5 0 4 2;
#X connect 6 0 11 0;
#X connect 7 0 4 0;
#X connect 11 0 4 1;
#X connect 12 0 15 0;
#X connect 14 0 11 1;
#X connect 15 0 14 0;
