#N canvas 666 252 651 434 10;
#X obj 98 21 papes_input_camera;
#X obj 103 393 gemwin;
#X msg 129 369 destroy;
#X msg 130 348 create;
#X obj 103 371 tgl 15 0 empty empty empty 17 7 0 10 -262144 -1 -1 0
1;
#X floatatom 339 171 5 0 3 0 - - -;
#X obj 121 152 hsl 128 15 0 1 0 0 empty empty empty -2 -8 0 10 -262144
-1 -1 0 1;
#X obj 121 205 hsl 128 15 0 1 0 0 empty empty empty -2 -8 0 10 -262144
-1 -1 0 1;
#X obj 98 224 papes_effect_delay;
#X obj 98 171 papes_effect_flip;
#X msg 266 170 variant \$1;
#X floatatom 337 226 5 0 99 0 - - -;
#X msg 264 225 frames \$1;
#X obj 120 94 hsl 128 15 0 1 0 0 empty empty empty -2 -8 0 10 -262144
-1 -1 0 1;
#X obj 98 113 papes_effect_sample;
#X msg 277 132 rec;
#X msg 191 377 frame 60;
#X floatatom 359 65 5 0 2 0 - - -;
#X msg 274 88 rate \$1;
#X floatatom 328 88 5 0 0 0 - - -;
#X msg 273 65 direction \$1;
#X floatatom 330 110 5 0 99 0 - - -;
#X msg 276 110 goto \$1;
#X obj 195 356 loadbang;
#X obj 98 286 papes_output_rectangle;
#X msg 440 270 sx \$1;
#X floatatom 480 270 5 0 0 0 - - -;
#X floatatom 480 289 5 0 0 0 - - -;
#X msg 440 289 sy \$1;
#X floatatom 399 269 5 0 0 0 - - -;
#X floatatom 399 288 5 0 0 0 - - -;
#X floatatom 399 307 5 0 0 0 - - -;
#X msg 359 269 rx \$1;
#X msg 359 288 ry \$1;
#X msg 359 307 rz \$1;
#X floatatom 315 269 5 0 0 0 - - -;
#X floatatom 315 288 5 0 0 0 - - -;
#X floatatom 315 307 5 0 0 0 - - -;
#X msg 275 269 tx \$1;
#X msg 275 288 ty \$1;
#X msg 275 307 tz \$1;
#X floatatom 559 270 5 0 0 0 - - -;
#X floatatom 559 289 5 0 0 0 - - -;
#X msg 519 270 w \$1;
#X msg 519 289 h \$1;
#X msg 191 397 dimen 640 480;
#X msg 464 319 visible \$1;
#X obj 535 320 tgl 15 0 empty empty empty 17 7 0 10 -262144 -1 -1 0
1;
#X msg 464 358 color \$1 \$1 \$1;
#X obj 467 340 hsl 128 15 0 1 0 0 empty empty empty -2 -8 0 10 -262144
-1 -1 0 1;
#X text 378 170 0-3;
#X text 371 225 0-99;
#X text 367 110 0-99;
#X text 305 132 start recording 100 frames;
#X text 395 64 0= forward \, 1= backward \, 2= palindrom;
#X text 366 87 1= normal speed;
#X connect 0 0 14 0;
#X connect 2 0 1 0;
#X connect 3 0 1 0;
#X connect 4 0 1 0;
#X connect 5 0 10 0;
#X connect 6 0 9 1;
#X connect 7 0 8 1;
#X connect 8 0 24 0;
#X connect 9 0 8 0;
#X connect 10 0 9 2;
#X connect 11 0 12 0;
#X connect 12 0 8 2;
#X connect 13 0 14 1;
#X connect 14 0 9 0;
#X connect 15 0 14 2;
#X connect 16 0 1 0;
#X connect 17 0 20 0;
#X connect 18 0 14 2;
#X connect 19 0 18 0;
#X connect 20 0 14 2;
#X connect 21 0 22 0;
#X connect 22 0 14 2;
#X connect 23 0 16 0;
#X connect 23 0 45 0;
#X connect 25 0 24 1;
#X connect 26 0 25 0;
#X connect 27 0 28 0;
#X connect 28 0 24 1;
#X connect 29 0 32 0;
#X connect 30 0 33 0;
#X connect 31 0 34 0;
#X connect 32 0 24 1;
#X connect 33 0 24 1;
#X connect 34 0 24 1;
#X connect 35 0 38 0;
#X connect 36 0 39 0;
#X connect 37 0 40 0;
#X connect 38 0 24 1;
#X connect 39 0 24 1;
#X connect 40 0 24 1;
#X connect 41 0 43 0;
#X connect 42 0 44 0;
#X connect 43 0 24 1;
#X connect 44 0 24 1;
#X connect 45 0 1 0;
#X connect 46 0 24 1;
#X connect 47 0 46 0;
#X connect 48 0 24 1;
#X connect 49 0 48 0;
