#N canvas 722 255 505 406 10;
#X declare -lib mrpeach;
#X text 147 314 open papes_1.pd in the background;
#X obj 75 211 udpsend;
#X obj 75 184 packOSC;
#X msg 180 214 connect 127.0.0.1 9955;
#X obj 186 183 loadbang;
#X obj 75 236 import mrpeach;
#X msg 74 95 /effect_flip xfade \$1;
#X floatatom 73 63 5 0 0 0 - - -;
#X obj 73 35 tgl 15 0 empty empty empty 17 7 0 10 -262144 -1 -1 1 1
;
#X obj 417 23 adc~;
#X obj 417 48 env~;
#X floatatom 421 134 5 0 0 0 - - -;
#X obj 427 165 vsl 15 128 0 127 0 0 empty empty empty 0 -9 0 10 -262144
-1 -1 6302 1;
#X obj 369 232 change;
#X obj 363 256 sel 1;
#X obj 437 97 line;
#X msg 440 76 \$1 100;
#X obj 370 208 > 70;
#X obj 350 296 speedlim 1000;
#X connect 2 0 1 0;
#X connect 3 0 1 0;
#X connect 4 0 3 0;
#X connect 6 0 2 0;
#X connect 7 0 6 0;
#X connect 8 0 7 0;
#X connect 9 0 10 0;
#X connect 10 0 11 0;
#X connect 11 0 12 0;
#X connect 11 0 17 0;
#X connect 13 0 14 0;
#X connect 14 0 18 0;
#X connect 15 0 11 0;
#X connect 16 0 15 0;
#X connect 17 0 13 0;
#X connect 18 0 8 0;
