#N canvas 498 22 795 522 10;
#X declare -lib mrpeach;
#X obj 117 418 udpsend;
#X obj 117 391 packOSC;
#X msg 222 421 connect 127.0.0.1 9955;
#X obj 54 294 prepend /output_rectangle;
#X obj 54 206 prepend /effect_delay;
#X floatatom 449 146 5 0 3 0 - - -;
#X obj 231 127 hsl 128 15 0 1 0 0 empty empty empty -2 -8 0 10 -262144
-1 -1 0 1;
#X obj 231 205 hsl 128 15 0 1 0 0 empty empty empty -2 -8 0 10 -262144
-1 -1 0 1;
#X msg 376 145 variant \$1;
#X floatatom 447 226 5 0 99 0 - - -;
#X msg 374 225 frames \$1;
#X obj 231 43 hsl 128 15 0 1 0 0 empty empty empty -2 -8 0 10 -262144
-1 -1 0 1;
#X msg 388 81 rec;
#X floatatom 470 14 5 0 2 0 - - -;
#X msg 385 37 rate \$1;
#X floatatom 439 37 5 0 0 0 - - -;
#X msg 384 14 direction \$1;
#X floatatom 441 59 5 0 99 0 - - -;
#X msg 387 59 goto \$1;
#X msg 550 270 sx \$1;
#X floatatom 590 270 5 0 0 0 - - -;
#X floatatom 590 289 5 0 0 0 - - -;
#X msg 550 289 sy \$1;
#X floatatom 509 269 5 0 0 0 - - -;
#X floatatom 509 288 5 0 0 0 - - -;
#X floatatom 509 307 5 0 0 0 - - -;
#X msg 469 269 rx \$1;
#X msg 469 288 ry \$1;
#X msg 469 307 rz \$1;
#X floatatom 425 269 5 0 0 0 - - -;
#X floatatom 425 288 5 0 0 0 - - -;
#X floatatom 425 307 5 0 0 0 - - -;
#X msg 385 269 tx \$1;
#X msg 385 288 ty \$1;
#X msg 385 307 tz \$1;
#X floatatom 669 270 5 0 0 0 - - -;
#X floatatom 669 289 5 0 0 0 - - -;
#X msg 629 270 w \$1;
#X msg 629 289 h \$1;
#X msg 574 319 visible \$1;
#X obj 645 320 tgl 15 0 empty empty empty 17 7 0 10 -262144 -1 -1 0
1;
#X msg 574 358 color \$1 \$1 \$1;
#X obj 577 340 hsl 128 15 0 1 0 0 empty empty empty -2 -8 0 10 -262144
-1 -1 0 1;
#X text 488 145 0-3;
#X text 481 225 0-99;
#X text 478 59 0-99;
#X text 416 81 start recording 100 frames;
#X text 506 13 0= forward \, 1= backward \, 2= palindrom;
#X text 477 36 1= normal speed;
#X msg 228 223 xfade \$1;
#X obj 57 41 prepend /effect_sample;
#X obj 57 126 prepend /effect_flip;
#X msg 228 145 xfade \$1;
#X msg 228 61 xfade \$1;
#X text 432 474 open papes_1.pd in the background;
#X obj 228 390 loadbang;
#X obj 117 443 import mrpeach;
#X connect 1 0 0 0;
#X connect 2 0 0 0;
#X connect 3 0 1 0;
#X connect 4 0 1 0;
#X connect 5 0 8 0;
#X connect 6 0 52 0;
#X connect 7 0 49 0;
#X connect 8 0 51 0;
#X connect 9 0 10 0;
#X connect 10 0 4 0;
#X connect 11 0 53 0;
#X connect 12 0 50 0;
#X connect 13 0 16 0;
#X connect 14 0 50 0;
#X connect 15 0 14 0;
#X connect 16 0 50 0;
#X connect 17 0 18 0;
#X connect 18 0 50 0;
#X connect 19 0 3 0;
#X connect 20 0 19 0;
#X connect 21 0 22 0;
#X connect 22 0 3 0;
#X connect 23 0 26 0;
#X connect 24 0 27 0;
#X connect 25 0 28 0;
#X connect 26 0 3 0;
#X connect 27 0 3 0;
#X connect 28 0 3 0;
#X connect 29 0 32 0;
#X connect 30 0 33 0;
#X connect 31 0 34 0;
#X connect 32 0 3 0;
#X connect 33 0 3 0;
#X connect 34 0 3 0;
#X connect 35 0 37 0;
#X connect 36 0 38 0;
#X connect 37 0 3 0;
#X connect 38 0 3 0;
#X connect 39 0 3 0;
#X connect 40 0 39 0;
#X connect 41 0 3 0;
#X connect 42 0 41 0;
#X connect 49 0 4 0;
#X connect 50 0 1 0;
#X connect 51 0 1 0;
#X connect 52 0 51 0;
#X connect 53 0 50 0;
#X connect 55 0 2 0;
