#N canvas 643 61 662 709 16;
#X declare -lib mrpeach;
#X obj 41 336 phasor~;
#X obj 41 363 *~ 0.5;
#X obj 41 415 clip~ -0.5 0.5;
#X obj 41 467 hip~ 5;
#X obj 41 441 cos~;
#X obj 43 582 dac~;
#X obj 41 494 *~ 0.1;
#X obj 41 521 linear_pan~;
#X floatatom 179 530 5 0 0 0 - - -;
#X obj 92 19 import mrpeach;
#X obj 94 79 udpreceive 8900;
#X obj 94 106 unpackOSC;
#X obj 97 174 hsl 128 15 0 5000 0 0 empty empty empty -2 -8 0 10 -262144
-1 -1 1227 1;
#X obj 94 133 route /fo /joon /mari /tobias;
#X obj 179 478 random 1000;
#X obj 179 452 loadbang;
#X obj 179 504 / 999;
#X obj 41 261 int;
#X floatatom 118 270 5 0 0 0 - - -;
#X obj 118 216 loadbang;
#X msg 118 243 100;
#X obj 41 234 /;
#X obj 41 289 *;
#X obj 41 389 *~ 3;
#X connect 0 0 1 0;
#X connect 1 0 23 0;
#X connect 2 0 4 0;
#X connect 3 0 6 0;
#X connect 4 0 3 0;
#X connect 6 0 7 0;
#X connect 7 0 5 0;
#X connect 7 1 5 1;
#X connect 8 0 7 1;
#X connect 10 0 11 0;
#X connect 11 0 13 0;
#X connect 12 0 21 0;
#X connect 13 0 12 0;
#X connect 14 0 16 0;
#X connect 15 0 14 0;
#X connect 16 0 8 0;
#X connect 17 0 22 0;
#X connect 18 0 21 1;
#X connect 18 0 22 1;
#X connect 19 0 20 0;
#X connect 20 0 18 0;
#X connect 21 0 17 0;
#X connect 22 0 0 0;
#X connect 23 0 2 0;
