#N canvas 269 225 535 346 10;
#X declare -lib mrpeach;
#X obj 24 15 import mrpeach;
#X obj 21 111 unpackOSC;
#X obj 29 73 udpreceive 8870;
#X obj 44 142 print in;
#X floatatom 40 254 5 0 0 0 - - -;
#X obj 37 227 unpack f f f;
#X floatatom 76 255 5 0 0 0 - - -;
#X floatatom 114 253 5 0 0 0 - - -;
#X obj 296 191 udpsend;
#X obj 318 135 packOSC;
#X msg 330 110 send /fo \$1 \$2 \$3;
#X obj 335 79 pack f f f;
#X floatatom 351 28 5 0 0 0 - - -;
#X floatatom 390 27 5 0 0 0 - - -;
#X floatatom 425 27 5 0 0 0 - - -;
#X obj 352 50 bondo 3;
#X msg 326 166 connect 127.0.0.1 8870;
#X obj 29 183 route /fo;
#X connect 1 0 3 0;
#X connect 1 0 17 0;
#X connect 2 0 1 0;
#X connect 5 0 4 0;
#X connect 5 1 6 0;
#X connect 5 2 7 0;
#X connect 9 0 8 0;
#X connect 10 0 9 0;
#X connect 11 0 10 0;
#X connect 12 0 15 0;
#X connect 13 0 15 1;
#X connect 14 0 15 2;
#X connect 15 0 11 0;
#X connect 15 1 11 1;
#X connect 15 2 11 2;
#X connect 16 0 8 0;
#X connect 17 0 5 0;
