#N canvas 0 22 458 344 10;
#X obj 52 39 inlet;
#X obj 146 40 inlet;
#X obj 90 94 spigot;
#X text 50 12 video;
#X obj 52 175 pix_buffer_write \$1;
#X obj 101 225 pix_buffer \$1 \$2;
#X text 180 271 first argument is buffer name;
#X text 180 289 second argument is buffer size in frames;
#X obj 23 266 outlet;
#X obj 23 239 f;
#X obj 52 63 t b a b;
#X text 9 289 frame index;
#X text 141 14 rec bang;
#X msg 146 87 1;
#X obj 146 62 t b b;
#X obj 90 121 counter 1 \$2;
#X msg 175 88 set 1;
#X obj 90 143 - 1;
#X obj 202 151 sel \$2;
#X msg 202 171 0;
#X connect 0 0 10 0;
#X connect 1 0 14 0;
#X connect 2 0 15 0;
#X connect 9 0 8 0;
#X connect 10 0 9 0;
#X connect 10 1 4 0;
#X connect 10 2 2 0;
#X connect 13 0 2 1;
#X connect 14 0 13 0;
#X connect 14 1 16 0;
#X connect 15 0 17 0;
#X connect 15 0 18 0;
#X connect 16 0 15 0;
#X connect 17 0 4 1;
#X connect 17 0 9 1;
#X connect 18 0 19 0;
#X connect 19 0 2 1;