#N canvas 0 22 458 364 10;
#X obj 51 281 outlet;
#X obj 51 44 gemhead;
#X obj 51 251 pix_buffer_read \$1;
#X obj 239 46 inlet;
#X text 237 18 rate;
#X obj 156 204 counter 1 \$2;
#X obj 156 225 - 1;
#X obj 280 174 metro 16.667;
#X obj 280 116 loadbang;
#X msg 280 138 1;
#X obj 75 108 timer;
#X obj 51 77 t a b b;
#X obj 224 146 * 1;
#X obj 140 47 inlet;
#X text 135 18 direction;
#X text 53 310 first argument is buffer name;
#X text 53 328 second argument is buffer size in frames;
#X obj 239 74 t b f;
#X obj 239 120 /;
#X msg 239 97 1;
#X obj 351 295 outlet;
#X text 347 320 frame index;
#X text 329 20 goto index;
#X obj 335 48 inlet;
#X msg 335 90 set \$1;
#X obj 335 70 + 1;
#X connect 1 0 11 0;
#X connect 2 0 0 0;
#X connect 3 0 17 0;
#X connect 5 0 6 0;
#X connect 6 0 2 1;
#X connect 6 0 20 0;
#X connect 7 0 5 0;
#X connect 8 0 9 0;
#X connect 9 0 7 0;
#X connect 10 0 12 0;
#X connect 11 0 2 0;
#X connect 11 1 10 0;
#X connect 11 2 10 1;
#X connect 12 0 7 1;
#X connect 13 0 5 1;
#X connect 17 0 19 0;
#X connect 17 1 18 1;
#X connect 18 0 12 1;
#X connect 19 0 18 0;
#X connect 23 0 25 0;
#X connect 24 0 5 0;
#X connect 25 0 24 0;