#N canvas 521 22 800 808 10;
#X obj 56 26 gemhead;
#X obj 56 48 pix_video;
#X obj 122 25 loadbang;
#X msg 122 46 dimen 640 480;
#X obj 56 140 myabs-bufwrite buf0 120;
#X obj 57 655 pix_texture;
#X obj 57 678 rectangle 4 3;
#X obj 35 758 gemwin;
#X msg 56 728 create;
#X msg 105 729 destroy;
#X obj 31 731 tgl 15 0 empty empty empty 17 7 0 10 -262144 -1 -1 0
1;
#X floatatom 571 207 5 0 0 0 - - -;
#X floatatom 56 160 5 0 0 0 - - -;
#X floatatom 143 211 5 0 0 0 - - -;
#X obj 143 188 tgl 15 0 empty empty empty 17 7 0 10 -262144 -1 -1 0
1;
#X obj 191 123 bng 15 250 50 0 empty empty empty 17 7 0 10 -262144
-1 -1;
#X msg 83 758 frame 60;
#X floatatom 21 607 5 0 0 0 - - -;
#X obj 9 78 pix_separator;
#X obj 56 120 pix_separator;
#X msg 147 636 4;
#X msg 176 638 -4;
#X obj 57 631 switch 7;
#X obj 620 4 key;
#X floatatom 620 23 5 0 0 0 - - -;
#X msg 537 181 0.5;
#X msg 570 182 0.75;
#X msg 603 183 1;
#X obj 184 205 delay 500;
#X msg 184 224 2;
#X obj 153 614 sel 0 1;
#X obj 154 588 tgl 15 0 empty empty empty 17 7 0 10 -262144 -1 -1 0
1;
#X obj 92 163 myabs-bufread buf0 120;
#X floatatom 221 144 5 0 0 0 - - -;
#X msg 248 121 50;
#X msg 218 121 0;
#X obj 169 185 t b b;
#X obj 551 121 sel 113 119 101 114 116;
#X obj 571 147 sel 81 87 69 82 84;
#X text 688 145 QWERT;
#X text 697 119 qwert;
#X msg 546 316 0.5;
#X msg 579 317 0.75;
#X msg 612 318 1;
#X text 706 254 asdfg;
#X text 697 280 ASDFG;
#X obj 560 256 sel 97 115 100 102 103;
#X obj 580 282 sel 65 83 68 70 71;
#X msg 634 184 1.33;
#X msg 667 182 1.66;
#X msg 643 319 1.33;
#X msg 676 317 1.66;
#X msg 518 156 2;
#X msg 549 41 1;
#X msg 513 41 0;
#X msg 514 295 3;
#X floatatom 65 297 5 0 0 0 - - -;
#X floatatom 152 348 5 0 0 0 - - -;
#X obj 152 325 tgl 15 0 empty empty empty 17 7 0 10 -262144 -1 -1 0
1;
#X obj 200 260 bng 15 250 50 0 empty empty empty 17 7 0 10 -262144
-1 -1;
#X obj 65 257 pix_separator;
#X obj 193 342 delay 500;
#X msg 193 361 2;
#X floatatom 230 281 5 0 0 0 - - -;
#X msg 257 258 50;
#X msg 227 258 0;
#X obj 178 322 t b b;
#X obj 65 277 myabs-bufwrite buf1 120;
#X obj 101 300 myabs-bufread buf1 120;
#X floatatom 595 344 5 0 0 0 - - -;
#X floatatom 78 449 5 0 0 0 - - -;
#X floatatom 165 500 5 0 0 0 - - -;
#X obj 165 477 tgl 15 0 empty empty empty 17 7 0 10 -262144 -1 -1 0
1;
#X obj 213 412 bng 15 250 50 0 empty empty empty 17 7 0 10 -262144
-1 -1;
#X obj 78 409 pix_separator;
#X obj 206 494 delay 500;
#X msg 206 513 2;
#X floatatom 243 433 5 0 0 0 - - -;
#X msg 270 410 50;
#X msg 240 410 0;
#X obj 191 474 t b b;
#X obj 78 429 myabs-bufwrite buf2 120;
#X obj 114 452 myabs-bufread buf2 120;
#X obj 146 759 loadbang;
#X msg 540 468 0.5;
#X msg 573 469 0.75;
#X msg 606 470 1;
#X msg 637 471 1.33;
#X msg 670 469 1.66;
#X floatatom 589 496 5 0 0 0 - - -;
#X text 700 406 zxcvb;
#X text 691 432 ZXCVB;
#X obj 554 408 sel 122 120 99 118 98;
#X obj 574 434 sel 90 88 67 86 66;
#X msg 508 447 4;
#X text 343 512 q - record buffer 0;
#X text 343 529 w - jump frame 0;
#X text 342 547 e - jump frame 50;
#X text 342 566 r - flip;
#X text 343 579 t - change direction;
#X text 343 611 a - record buffer 1;
#X text 343 628 s - jump frame 0;
#X text 342 646 d - jump frame 50;
#X text 342 665 f - flip;
#X text 343 678 g - change direction;
#X text 343 721 x - jump frame 0;
#X text 342 739 c - jump frame 50;
#X text 342 758 v - flip;
#X text 342 775 b - change direction;
#X text 343 704 z - record buffer 2;
#X obj 594 49 sel 27 45 60;
#X text 683 49 esc - <;
#X text 540 638 esc - turn off;
#X text 541 678 < - flip;
#X text 541 658 - - buffer off;
#X connect 0 0 1 0;
#X connect 1 0 18 0;
#X connect 1 0 19 0;
#X connect 1 0 60 0;
#X connect 1 0 74 0;
#X connect 2 0 3 0;
#X connect 3 0 1 0;
#X connect 4 0 12 0;
#X connect 5 0 6 0;
#X connect 8 0 7 0;
#X connect 9 0 7 0;
#X connect 10 0 7 0;
#X connect 11 0 32 1;
#X connect 13 0 32 0;
#X connect 14 0 13 0;
#X connect 15 0 4 1;
#X connect 16 0 7 0;
#X connect 17 0 22 0;
#X connect 18 0 22 1;
#X connect 19 0 4 0;
#X connect 20 0 6 1;
#X connect 21 0 6 1;
#X connect 22 0 5 0;
#X connect 23 0 24 0;
#X connect 24 0 110 0;
#X connect 25 0 11 0;
#X connect 26 0 11 0;
#X connect 27 0 11 0;
#X connect 28 0 29 0;
#X connect 29 0 13 0;
#X connect 30 0 20 0;
#X connect 30 1 21 0;
#X connect 31 0 30 0;
#X connect 32 0 22 2;
#X connect 33 0 32 2;
#X connect 34 0 33 0;
#X connect 35 0 33 0;
#X connect 36 0 14 0;
#X connect 36 1 28 0;
#X connect 37 0 15 0;
#X connect 37 1 35 0;
#X connect 37 1 52 0;
#X connect 37 2 34 0;
#X connect 37 2 52 0;
#X connect 37 3 31 0;
#X connect 37 3 52 0;
#X connect 37 4 36 0;
#X connect 37 4 52 0;
#X connect 37 5 38 0;
#X connect 38 0 25 0;
#X connect 38 1 26 0;
#X connect 38 2 27 0;
#X connect 38 3 48 0;
#X connect 38 4 49 0;
#X connect 38 5 46 0;
#X connect 41 0 69 0;
#X connect 42 0 69 0;
#X connect 43 0 69 0;
#X connect 46 0 59 0;
#X connect 46 1 55 0;
#X connect 46 1 65 0;
#X connect 46 2 55 0;
#X connect 46 2 64 0;
#X connect 46 3 31 0;
#X connect 46 3 55 0;
#X connect 46 4 55 0;
#X connect 46 4 66 0;
#X connect 46 5 47 0;
#X connect 47 0 41 0;
#X connect 47 1 42 0;
#X connect 47 2 43 0;
#X connect 47 3 50 0;
#X connect 47 4 51 0;
#X connect 47 5 92 0;
#X connect 48 0 11 0;
#X connect 49 0 11 0;
#X connect 50 0 69 0;
#X connect 51 0 69 0;
#X connect 52 0 17 0;
#X connect 53 0 17 0;
#X connect 54 0 17 0;
#X connect 55 0 17 0;
#X connect 57 0 68 0;
#X connect 58 0 57 0;
#X connect 59 0 67 1;
#X connect 60 0 67 0;
#X connect 61 0 62 0;
#X connect 62 0 57 0;
#X connect 63 0 68 2;
#X connect 64 0 63 0;
#X connect 65 0 63 0;
#X connect 66 0 58 0;
#X connect 66 1 61 0;
#X connect 67 0 56 0;
#X connect 68 0 22 3;
#X connect 69 0 68 1;
#X connect 71 0 82 0;
#X connect 72 0 71 0;
#X connect 73 0 81 1;
#X connect 74 0 81 0;
#X connect 75 0 76 0;
#X connect 76 0 71 0;
#X connect 77 0 82 2;
#X connect 78 0 77 0;
#X connect 79 0 77 0;
#X connect 80 0 72 0;
#X connect 80 1 75 0;
#X connect 81 0 70 0;
#X connect 82 0 22 4;
#X connect 83 0 16 0;
#X connect 84 0 89 0;
#X connect 85 0 89 0;
#X connect 86 0 89 0;
#X connect 87 0 89 0;
#X connect 88 0 89 0;
#X connect 89 0 82 1;
#X connect 92 0 73 0;
#X connect 92 1 94 0;
#X connect 92 1 79 0;
#X connect 92 2 94 0;
#X connect 92 2 78 0;
#X connect 92 3 94 0;
#X connect 92 3 31 0;
#X connect 92 4 94 0;
#X connect 92 4 80 0;
#X connect 92 5 93 0;
#X connect 93 0 84 0;
#X connect 93 1 85 0;
#X connect 93 2 86 0;
#X connect 93 3 87 0;
#X connect 93 4 88 0;
#X connect 94 0 17 0;
#X connect 110 0 54 0;
#X connect 110 1 53 0;
#X connect 110 2 31 0;
#X connect 110 3 37 0;
