#N canvas 613 37 659 392 10;
#X declare -lib mrpeach;
#X obj 55 280 print;
#X obj 74 209 udpreceive 5556;
#X obj 65 244 unpackOSC;
#X obj 111 318 unpack 0 0 0;
#X floatatom 106 346 5 0 0 0 - - -;
#X floatatom 145 346 5 0 0 0 - - -;
#X floatatom 182 345 5 0 0 0 - - -;
#X obj 117 288 route /test;
#X text 245 274 n= NetAddr("127.0.0.1" \, 5556);
#X text 245 293 n.sendMsg('/test' \, 1 \, 2 \, 3.0.rand);
#X obj 339 103 packOSC;
#X msg 333 68 send /test 1 2 \$1;
#X floatatom 332 38 5 0 0 0 - - -;
#X obj 184 30 import mrpeach;
#X obj 339 129 udpsend;
#X text 303 167 o= OSCresponder(nil \, '/test' \, |t \, r \, m| m.postln).add
;
#X msg 424 127 connect localhost 57120;
#X connect 1 0 2 0;
#X connect 2 0 0 0;
#X connect 2 0 7 0;
#X connect 3 0 4 0;
#X connect 3 1 5 0;
#X connect 3 2 6 0;
#X connect 7 0 3 0;
#X connect 10 0 14 0;
#X connect 11 0 10 0;
#X connect 12 0 11 0;
#X connect 16 0 14 0;
