#N canvas 670 123 655 535 10;
#X obj 56 38 gemhead;
#X obj 56 68 pix_video;
#X obj 122 45 loadbang;
#X msg 122 66 dimen 640 480;
#X obj 56 119 myabs-bufwrite buf0 120;
#X obj 46 354 pix_texture;
#X obj 46 377 rectangle 4 3;
#X obj 43 456 gemwin;
#X msg 64 426 create;
#X msg 113 427 destroy;
#X obj 39 429 tgl 15 0 empty empty empty 17 7 0 10 -262144 -1 -1 1
1;
#X floatatom 201 164 5 0 0 0 - - -;
#X floatatom 56 139 5 0 0 0 - - -;
#X floatatom 136 254 5 0 0 0 - - -;
#X obj 155 224 tgl 15 0 empty empty empty 17 7 0 10 -262144 -1 -1 1
1;
#X obj 190 91 bng 15 250 50 0 empty empty empty 17 7 0 10 -262144 -1
-1;
#X msg 49 483 frame 60;
#X floatatom 21 298 5 0 0 0 - - -;
#X obj 9 98 pix_separator;
#X obj 97 93 pix_separator;
#X msg 136 356 4;
#X msg 165 358 -4;
#X obj 46 322 switch 7;
#X obj 448 75 key;
#X floatatom 448 94 5 0 0 0 - - -;
#X msg 351 218 0.5;
#X msg 384 219 0.75;
#X msg 417 220 1;
#X msg 448 221 1.25;
#X msg 481 219 1.5;
#X msg 513 219 1.75;
#X obj 177 248 delay 500;
#X msg 176 275 2;
#X obj 142 334 sel 0 1;
#X obj 143 308 tgl 15 0 empty empty empty 17 7 0 10 -262144 -1 -1 1
1;
#X obj 57 168 myabs-bufread buf0 120;
#X floatatom 181 145 5 0 0 0 - - -;
#X msg 259 129 50;
#X msg 256 104 0;
#X obj 181 221 t b b;
#X obj 365 158 sel 113 119 101 114 116;
#X obj 385 184 sel 81 87 69 82 84;
#X text 502 182 QWERT;
#X text 511 156 qwert;
#X connect 0 0 1 0;
#X connect 1 0 18 0;
#X connect 1 0 19 0;
#X connect 2 0 3 0;
#X connect 3 0 1 0;
#X connect 4 0 12 0;
#X connect 5 0 6 0;
#X connect 8 0 7 0;
#X connect 9 0 7 0;
#X connect 10 0 7 0;
#X connect 11 0 35 1;
#X connect 13 0 35 0;
#X connect 14 0 13 0;
#X connect 15 0 4 1;
#X connect 16 0 7 0;
#X connect 17 0 22 0;
#X connect 18 0 22 1;
#X connect 19 0 4 0;
#X connect 20 0 6 1;
#X connect 21 0 6 1;
#X connect 22 0 5 0;
#X connect 23 0 24 0;
#X connect 24 0 40 0;
#X connect 25 0 11 0;
#X connect 26 0 11 0;
#X connect 27 0 11 0;
#X connect 28 0 11 0;
#X connect 29 0 11 0;
#X connect 30 0 11 0;
#X connect 31 0 32 0;
#X connect 32 0 13 0;
#X connect 33 0 20 0;
#X connect 33 1 21 0;
#X connect 34 0 33 0;
#X connect 35 0 22 2;
#X connect 36 0 35 2;
#X connect 37 0 36 0;
#X connect 38 0 36 0;
#X connect 39 0 14 0;
#X connect 39 1 31 0;
#X connect 40 0 15 0;
#X connect 40 1 38 0;
#X connect 40 2 37 0;
#X connect 40 3 34 0;
#X connect 40 4 39 0;
#X connect 40 5 41 0;
#X connect 41 0 25 0;
#X connect 41 1 26 0;
#X connect 41 2 27 0;
#X connect 41 3 28 0;
#X connect 41 4 29 0;
#X connect 41 5 30 0;
