#N canvas 552 22 863 536 16;
#X obj 56 38 gemhead;
#X obj 56 68 pix_video;
#X obj 188 23 loadbang;
#X msg 188 54 dimen 640 480;
#X obj 54 393 pix_texture;
#X obj 54 431 rectangle 4 3;
#X obj 240 395 gemwin;
#X msg 261 365 create;
#X msg 341 364 destroy;
#X obj 236 368 tgl 15 0 empty empty empty 17 7 0 10 -262144 -1 -1 0
1;
#X floatatom 163 260 5 0 0 0 - - -;
#X floatatom 57 159 5 0 0 0 - - -;
#X floatatom 53 245 5 0 0 0 - - -;
#X obj 27 224 tgl 15 0 empty empty empty 17 7 0 10 -262144 -1 -1 0
1;
#X obj 307 102 bng 15 250 50 0 empty empty empty 17 7 0 10 -262144
-1 -1;
#X msg 286 437 frame 60;
#X floatatom 251 260 5 0 0 0 - - -;
#X text 45 217 direction;
#X text 166 229 rate;
#X text 253 232 goto;
#X obj 313 257 bng 15 250 50 0 empty empty empty 17 7 0 10 -262144
-1 -1;
#X obj 489 39 key;
#X floatatom 482 69 5 0 0 0 - - -;
#X obj 480 134 bng 15 250 50 0 empty empty empty 17 7 0 10 -262144
-1 -1;
#X obj 523 136 bng 15 250 50 0 empty empty empty 17 7 0 10 -262144
-1 -1;
#X obj 558 137 bng 15 250 50 0 empty empty empty 17 7 0 10 -262144
-1 -1;
#X obj 511 179 random 100;
#X text 474 249 A = record;
#X text 474 277 S = random frame;
#X text 474 306 D = change dir;
#X obj 623 177 random 100;
#X obj 591 136 bng 15 250 50 0 empty empty empty 17 7 0 10 -262144
-1 -1;
#X text 472 336 F = random playbackrate;
#X obj 56 119 myabs-bufwrite buf0 100;
#X obj 53 291 myabs-bufread buf0 100;
#X obj 481 105 sel 65 83 68 70;
#X obj 625 213 maxlib/scale 0 99 0.1 2;
#X connect 0 0 1 0;
#X connect 1 0 33 0;
#X connect 2 0 3 0;
#X connect 3 0 1 0;
#X connect 4 0 5 0;
#X connect 7 0 6 0;
#X connect 8 0 6 0;
#X connect 9 0 6 0;
#X connect 10 0 34 1;
#X connect 12 0 34 0;
#X connect 13 0 12 0;
#X connect 14 0 33 1;
#X connect 15 0 6 0;
#X connect 16 0 34 2;
#X connect 20 0 16 0;
#X connect 21 0 22 0;
#X connect 22 0 35 0;
#X connect 23 0 14 0;
#X connect 24 0 26 0;
#X connect 25 0 13 0;
#X connect 26 0 16 0;
#X connect 30 0 36 0;
#X connect 31 0 30 0;
#X connect 33 0 11 0;
#X connect 34 0 4 0;
#X connect 35 0 23 0;
#X connect 35 1 24 0;
#X connect 35 2 25 0;
#X connect 35 3 31 0;
#X connect 36 0 10 0;
