#N canvas 52 431 527 382 16;
#X declare -lib mrpeach;
#X obj 105 59 import mrpeach;
#X obj 102 252 udpsend;
#X obj 102 214 packOSC;
#X floatatom 47 136 5 0 127 0 - - -;
#X text 54 104 shift+click and drag to fine adjust;
#X floatatom 268 135 5 0 127 0 - - -;
#X floatatom 276 204 5 0 127 0 - - -;
#X msg 48 173 send /johann midi \$1;
#X msg 269 172 send /johann trem \$1;
#X msg 276 241 send /johann amp \$1;
#X msg 28 314 connect 127.0.0.1 8876;
#X msg 44 343 disconnect;
#X connect 2 0 1 0;
#X connect 3 0 7 0;
#X connect 5 0 8 0;
#X connect 6 0 9 0;
#X connect 7 0 2 0;
#X connect 8 0 2 0;
#X connect 9 0 2 0;
#X connect 10 0 1 0;
#X connect 11 0 1 0;
