#N canvas 46 147 1049 687 12;
#X obj 17 89 sel 0 1 2 3 4;
#X floatatom 17 55 5 0 0 0 - - -;
#X msg 82 256 81 112 45;
#X obj 25 301 s p01;
#X floatatom 110 1 5 0 0 0 - - -;
#X obj 16 119 chordRandList3;
#X obj 31 145 chordRandList3f;
#X msg 48 203 30 20 10;
#X obj 151 92 sel 0 1 2 3 4;
#X floatatom 151 58 5 0 0 0 - - -;
#X msg 216 259 81 112 45;
#X obj 150 122 chordRandList3;
#X obj 165 148 chordRandList3f;
#X obj 159 304 s p02;
#X msg 182 206 35 25 15;
#X obj 291 90 sel 0 1 2 3 4;
#X floatatom 291 56 5 0 0 0 - - -;
#X msg 356 257 81 112 45;
#X obj 290 120 chordRandList3;
#X obj 305 146 chordRandList3f;
#X obj 299 301 s p03;
#X msg 322 204 40 30 20;
#X obj 430 89 sel 0 1 2 3 4;
#X floatatom 430 55 5 0 0 0 - - -;
#X msg 495 256 81 112 45;
#X obj 429 119 chordRandList3;
#X obj 444 145 chordRandList3f;
#X obj 564 92 sel 0 1 2 3 4;
#X floatatom 564 58 5 0 0 0 - - -;
#X msg 629 259 81 112 45;
#X obj 563 122 chordRandList3;
#X obj 578 148 chordRandList3f;
#X obj 704 90 sel 0 1 2 3 4;
#X floatatom 704 56 5 0 0 0 - - -;
#X msg 769 257 81 112 45;
#X obj 703 120 chordRandList3;
#X obj 718 146 chordRandList3f;
#X obj 852 97 sel 0 1 2 3 4;
#X floatatom 852 63 5 0 0 0 - - -;
#X msg 917 264 81 112 45;
#X obj 851 127 chordRandList3;
#X obj 866 153 chordRandList3f;
#X obj 24 385 sel 0 1 2 3 4;
#X floatatom 24 351 5 0 0 0 - - -;
#X msg 89 552 81 112 45;
#X obj 23 415 chordRandList3;
#X obj 38 441 chordRandList3f;
#X obj 158 388 sel 0 1 2 3 4;
#X floatatom 158 354 5 0 0 0 - - -;
#X msg 223 555 81 112 45;
#X obj 157 418 chordRandList3;
#X obj 172 444 chordRandList3f;
#X obj 298 386 sel 0 1 2 3 4;
#X floatatom 298 352 5 0 0 0 - - -;
#X msg 363 553 81 112 45;
#X obj 297 416 chordRandList3;
#X obj 312 442 chordRandList3f;
#X obj 437 385 sel 0 1 2 3 4;
#X floatatom 437 351 5 0 0 0 - - -;
#X msg 502 552 81 112 45;
#X obj 436 415 chordRandList3;
#X obj 451 441 chordRandList3f;
#X obj 571 388 sel 0 1 2 3 4;
#X floatatom 571 354 5 0 0 0 - - -;
#X msg 636 555 81 112 45;
#X obj 570 418 chordRandList3;
#X obj 585 444 chordRandList3f;
#X obj 711 386 sel 0 1 2 3 4;
#X floatatom 711 352 5 0 0 0 - - -;
#X msg 776 553 81 112 45;
#X obj 710 416 chordRandList3;
#X obj 725 442 chordRandList3f;
#X obj 859 393 sel 0 1 2 3 4;
#X floatatom 859 359 5 0 0 0 - - -;
#X msg 924 560 81 112 45;
#X obj 858 423 chordRandList3;
#X obj 873 449 chordRandList3f;
#X obj 438 301 s p04;
#X obj 572 304 s p05;
#X obj 712 301 s p06;
#X obj 860 308 s p07;
#X obj 32 597 s p08;
#X obj 166 600 s p09;
#X obj 306 597 s p10;
#X obj 445 597 s p11;
#X obj 579 600 s p12;
#X obj 719 597 s p13;
#X obj 867 604 s p14;
#X msg 461 203 45 35 25;
#X msg 595 206 50 40 30;
#X msg 735 204 55 45 35;
#X msg 883 211 60 50 40;
#X msg 55 499 65 55 45;
#X msg 189 502 70 60 50;
#X msg 329 500 75 65 55;
#X msg 468 499 80 70 60;
#X msg 602 502 85 75 65;
#X msg 742 500 90 80 70;
#X msg 890 507 95 85 75;
#X msg 66 230 1 2 3;
#X msg 200 233 4 5 6;
#X msg 340 231 7 8 9;
#X msg 479 230 10 11 12;
#X msg 613 233 13 14 15;
#X msg 753 231 16 17 18;
#X msg 901 238 19 20 21;
#X msg 73 526 22 23 24;
#X msg 207 529 25 26 27;
#X msg 347 527 28 29 30;
#X msg 486 526 31 32 33;
#X msg 620 529 34 35 36;
#X msg 760 527 37 38 39;
#X msg 908 534 40 41 42;
#X connect 0 0 5 0;
#X connect 0 1 6 0;
#X connect 0 2 7 0;
#X connect 0 3 99 0;
#X connect 0 4 2 0;
#X connect 1 0 0 0;
#X connect 2 0 3 0;
#X connect 4 0 1 0;
#X connect 4 0 9 0;
#X connect 4 0 16 0;
#X connect 4 0 23 0;
#X connect 4 0 28 0;
#X connect 4 0 33 0;
#X connect 4 0 38 0;
#X connect 4 0 43 0;
#X connect 4 0 48 0;
#X connect 4 0 53 0;
#X connect 4 0 58 0;
#X connect 4 0 63 0;
#X connect 4 0 68 0;
#X connect 4 0 73 0;
#X connect 5 0 3 0;
#X connect 6 0 3 0;
#X connect 7 0 3 0;
#X connect 8 0 11 0;
#X connect 8 1 12 0;
#X connect 8 2 14 0;
#X connect 8 3 100 0;
#X connect 8 4 10 0;
#X connect 9 0 8 0;
#X connect 10 0 13 0;
#X connect 11 0 13 0;
#X connect 12 0 13 0;
#X connect 14 0 13 0;
#X connect 15 0 18 0;
#X connect 15 1 19 0;
#X connect 15 2 21 0;
#X connect 15 3 101 0;
#X connect 15 4 17 0;
#X connect 16 0 15 0;
#X connect 17 0 20 0;
#X connect 18 0 20 0;
#X connect 19 0 20 0;
#X connect 21 0 20 0;
#X connect 22 0 25 0;
#X connect 22 1 26 0;
#X connect 22 2 88 0;
#X connect 22 3 102 0;
#X connect 22 4 24 0;
#X connect 23 0 22 0;
#X connect 24 0 77 0;
#X connect 25 0 77 0;
#X connect 26 0 77 0;
#X connect 27 0 30 0;
#X connect 27 1 31 0;
#X connect 27 2 89 0;
#X connect 27 3 103 0;
#X connect 27 4 29 0;
#X connect 28 0 27 0;
#X connect 29 0 78 0;
#X connect 30 0 78 0;
#X connect 31 0 78 0;
#X connect 32 0 35 0;
#X connect 32 1 36 0;
#X connect 32 2 90 0;
#X connect 32 3 104 0;
#X connect 32 4 34 0;
#X connect 33 0 32 0;
#X connect 34 0 79 0;
#X connect 35 0 79 0;
#X connect 36 0 79 0;
#X connect 37 0 40 0;
#X connect 37 1 41 0;
#X connect 37 2 91 0;
#X connect 37 3 105 0;
#X connect 37 4 39 0;
#X connect 38 0 37 0;
#X connect 39 0 80 0;
#X connect 40 0 80 0;
#X connect 41 0 80 0;
#X connect 42 0 45 0;
#X connect 42 1 46 0;
#X connect 42 2 92 0;
#X connect 42 3 106 0;
#X connect 42 4 44 0;
#X connect 43 0 42 0;
#X connect 44 0 81 0;
#X connect 45 0 81 0;
#X connect 46 0 81 0;
#X connect 47 0 50 0;
#X connect 47 1 51 0;
#X connect 47 2 93 0;
#X connect 47 3 107 0;
#X connect 47 4 49 0;
#X connect 48 0 47 0;
#X connect 49 0 82 0;
#X connect 50 0 82 0;
#X connect 51 0 82 0;
#X connect 52 0 55 0;
#X connect 52 1 56 0;
#X connect 52 2 94 0;
#X connect 52 3 108 0;
#X connect 52 4 54 0;
#X connect 53 0 52 0;
#X connect 54 0 83 0;
#X connect 55 0 83 0;
#X connect 56 0 83 0;
#X connect 57 0 60 0;
#X connect 57 1 61 0;
#X connect 57 2 95 0;
#X connect 57 3 109 0;
#X connect 57 4 59 0;
#X connect 58 0 57 0;
#X connect 59 0 84 0;
#X connect 60 0 84 0;
#X connect 61 0 84 0;
#X connect 62 0 65 0;
#X connect 62 1 66 0;
#X connect 62 2 96 0;
#X connect 62 3 110 0;
#X connect 62 4 64 0;
#X connect 63 0 62 0;
#X connect 64 0 85 0;
#X connect 65 0 85 0;
#X connect 66 0 85 0;
#X connect 67 0 70 0;
#X connect 67 1 71 0;
#X connect 67 2 97 0;
#X connect 67 3 111 0;
#X connect 67 4 69 0;
#X connect 68 0 67 0;
#X connect 69 0 86 0;
#X connect 70 0 86 0;
#X connect 71 0 86 0;
#X connect 72 0 75 0;
#X connect 72 1 76 0;
#X connect 72 2 98 0;
#X connect 72 3 112 0;
#X connect 72 4 74 0;
#X connect 73 0 72 0;
#X connect 74 0 87 0;
#X connect 75 0 87 0;
#X connect 76 0 87 0;
#X connect 88 0 77 0;
#X connect 89 0 78 0;
#X connect 90 0 79 0;
#X connect 91 0 80 0;
#X connect 92 0 81 0;
#X connect 93 0 82 0;
#X connect 94 0 83 0;
#X connect 95 0 84 0;
#X connect 96 0 85 0;
#X connect 97 0 86 0;
#X connect 98 0 87 0;
#X connect 99 0 3 0;
#X connect 100 0 13 0;
#X connect 101 0 20 0;
#X connect 102 0 77 0;
#X connect 103 0 78 0;
#X connect 104 0 79 0;
#X connect 105 0 80 0;
#X connect 106 0 81 0;
#X connect 107 0 82 0;
#X connect 108 0 83 0;
#X connect 109 0 84 0;
#X connect 110 0 85 0;
#X connect 111 0 86 0;
#X connect 112 0 87 0;
