#N canvas 633 22 706 679 16;
#X declare -lib mrpeach;
#X obj 79 85 import mrpeach;
#X obj 74 305 udpsend;
#X msg 171 349 connect 127.0.0.1 8876;
#X obj 76 249 packOSC;
#X msg 363 159 send /addy 10 20;
#X msg 168 383 disconnect;
#X text 128 34 simple send. OSC via network;
#X text 410 346 address and port;
#X msg 359 247 send /hallo 0.55 0.3 hesitate;
#X msg 364 117 send /myfreq \$1;
#X floatatom 364 89 5 0 0 0 - - -;
#X obj 130 586 unpackOSC;
#X obj 129 553 udpreceive 8877;
#X obj 90 625 bng 15 250 50 0 empty empty empty 17 7 0 10 -262144 -1
-1;
#X obj 129 619 print here;
#X msg 188 458 connect 194.95.203.194 8876;
#X msg 366 208 send /mari hello 5;
#X text 479 459 fo's mac with beamer;
#X connect 2 0 1 0;
#X connect 3 0 1 0;
#X connect 4 0 3 0;
#X connect 5 0 1 0;
#X connect 8 0 3 0;
#X connect 9 0 3 0;
#X connect 10 0 9 0;
#X connect 11 0 13 0;
#X connect 11 0 14 0;
#X connect 12 0 11 0;
#X connect 15 0 1 0;
#X connect 16 0 3 0;
