#N canvas 55 321 502 383 16;
#X declare -lib mrpeach;
#X obj 105 59 import mrpeach;
#X obj 102 252 udpsend;
#X obj 102 214 packOSC;
#X msg 203 255 connect 127.0.0.1 8900;
#X floatatom 48 109 5 0 0 0 - - -;
#X floatatom 229 111 5 0 0 0 - - -;
#X msg 229 141 send /fo amp \$1;
#X floatatom 231 179 5 0 0 0 - - -;
#X msg 231 209 send /fo pan \$1;
#X msg 47 139 send /fo midi \$1;
#X connect 2 0 1 0;
#X connect 3 0 1 0;
#X connect 4 0 9 0;
#X connect 5 0 6 0;
#X connect 6 0 2 0;
#X connect 7 0 8 0;
#X connect 8 0 2 0;
#X connect 9 0 2 0;
