#N canvas 524 22 683 639 16;
#X declare -lib mrpeach;
#X obj 102 29 import mrpeach;
#X obj 104 89 udpreceive 8900;
#X obj 104 116 unpackOSC;
#X obj 104 143 route /fo /joon /mari /tobias;
#X obj 34 369 int;
#X obj 34 342 /;
#X obj 34 397 *;
#X obj 38 449 hsl 128 15 0 127 0 0 empty empty empty -2 -8 0 10 -262144
-1 -1 6500 1;
#X obj 34 533 staticSynth;
#X obj 34 244 route midi amp pan;
#X obj 225 369 int;
#X obj 225 342 /;
#X obj 225 397 *;
#X obj 229 449 hsl 128 15 0 127 0 0 empty empty empty -2 -8 0 10 -262144
-1 -1 5500 1;
#X obj 225 533 staticSynth;
#X obj 225 244 route midi amp pan;
#X obj 420 370 int;
#X floatatom 542 107 5 0 0 0 - - -;
#X obj 542 51 loadbang;
#X obj 420 343 /;
#X obj 420 398 *;
#X obj 424 450 hsl 128 15 0 127 0 0 empty empty empty -2 -8 0 10 -262144
-1 -1 7000 1;
#X obj 420 534 staticSynth;
#X obj 543 137 max 0.01;
#X obj 420 245 route midi amp pan;
#X floatatom 75 366 5 0 0 0 - - -;
#X floatatom 267 364 5 0 0 0 - - -;
#X floatatom 462 367 5 0 0 0 - - -;
#X msg 542 78 5;
#X connect 1 0 2 0;
#X connect 2 0 3 0;
#X connect 3 0 9 0;
#X connect 3 1 15 0;
#X connect 3 2 24 0;
#X connect 4 0 6 0;
#X connect 5 0 4 0;
#X connect 6 0 7 0;
#X connect 7 0 8 0;
#X connect 9 0 5 0;
#X connect 10 0 12 0;
#X connect 11 0 10 0;
#X connect 12 0 13 0;
#X connect 13 0 14 0;
#X connect 15 0 11 0;
#X connect 16 0 20 0;
#X connect 17 0 23 0;
#X connect 18 0 28 0;
#X connect 19 0 16 0;
#X connect 20 0 21 0;
#X connect 21 0 22 0;
#X connect 23 0 27 0;
#X connect 23 0 26 0;
#X connect 23 0 25 0;
#X connect 24 0 19 0;
#X connect 25 0 5 1;
#X connect 25 0 6 1;
#X connect 26 0 11 1;
#X connect 26 0 12 1;
#X connect 27 0 19 1;
#X connect 27 0 20 1;
#X connect 28 0 17 0;
