#N canvas 524 22 683 639 16;
#X declare -lib mrpeach;
#X obj 102 29 import mrpeach;
#X obj 104 89 udpreceive 8900;
#X obj 104 116 unpackOSC;
#X obj 104 143 route /fo /joon /mari /tobias;
#X obj 38 449 hsl 128 15 0 127 0 0 empty empty empty -2 -8 0 10 -262144
-1 -1 5098 1;
#X obj 34 533 staticSynth;
#X obj 34 244 route midi amp pan;
#X obj 229 449 hsl 128 15 0 127 0 0 empty empty empty -2 -8 0 10 -262144
-1 -1 5067 1;
#X obj 225 533 staticSynth;
#X obj 225 244 route midi amp pan;
#X floatatom 542 107 5 0 0 0 - - -;
#X obj 542 51 loadbang;
#X obj 424 450 hsl 128 15 0 127 0 0 empty empty empty -2 -8 0 10 -262144
-1 -1 5074 1;
#X obj 420 534 staticSynth;
#X obj 420 245 route midi amp pan;
#X obj 35 378 mapping/smooth;
#X obj 75 292 loadbang;
#X msg 75 318 1;
#X obj 35 334 f;
#X obj 543 137 clip 0 1;
#X obj 75 344 metro 20;
#X msg 542 78 0.05;
#X obj 225 380 mapping/smooth;
#X obj 265 294 loadbang;
#X msg 265 320 1;
#X obj 225 336 f;
#X obj 265 346 metro 20;
#X obj 420 379 mapping/smooth;
#X obj 460 293 loadbang;
#X msg 460 319 1;
#X obj 420 335 f;
#X obj 460 345 metro 20;
#X connect 1 0 2 0;
#X connect 2 0 3 0;
#X connect 3 0 6 0;
#X connect 3 1 9 0;
#X connect 3 2 14 0;
#X connect 4 0 5 0;
#X connect 6 0 18 1;
#X connect 7 0 8 0;
#X connect 9 0 25 0;
#X connect 10 0 19 0;
#X connect 11 0 21 0;
#X connect 12 0 13 0;
#X connect 14 0 30 0;
#X connect 15 0 4 0;
#X connect 16 0 17 0;
#X connect 17 0 20 0;
#X connect 18 0 15 0;
#X connect 19 0 15 1;
#X connect 20 0 18 0;
#X connect 21 0 10 0;
#X connect 22 0 7 0;
#X connect 23 0 24 0;
#X connect 24 0 26 0;
#X connect 25 0 22 0;
#X connect 26 0 25 0;
#X connect 27 0 12 0;
#X connect 28 0 29 0;
#X connect 29 0 31 0;
#X connect 30 0 27 0;
#X connect 31 0 30 0;
