#N canvas 524 22 683 639 16;
#X declare -lib mrpeach;
#X obj 102 29 import mrpeach;
#X obj 104 89 udpreceive 8900;
#X obj 104 116 unpackOSC;
#X obj 104 143 route /fo /joon /mari /tobias;
#X obj 38 449 hsl 128 15 0 127 0 0 empty empty empty -2 -8 0 10 -262144
-1 -1 7896 1;
#X obj 34 533 staticSynth;
#X obj 34 244 route midi amp pan;
#X obj 225 244 route midi amp pan;
#X obj 420 245 route midi amp pan;
#X obj 34 369 average;
#X floatatom 513 138 5 0 0 0 - - -;
#X obj 513 81 loadbang;
#X msg 513 109 20;
#X floatatom 64 482 5 0 0 0 - - -;
#X connect 1 0 2 0;
#X connect 2 0 3 0;
#X connect 3 0 6 0;
#X connect 3 1 7 0;
#X connect 3 2 8 0;
#X connect 4 0 5 0;
#X connect 4 0 13 0;
#X connect 6 0 9 0;
#X connect 7 0 9 0;
#X connect 8 0 9 0;
#X connect 9 0 4 0;
#X connect 10 0 9 1;
#X connect 11 0 12 0;
#X connect 12 0 10 0;
