#N canvas 182 101 540 533 12;
#X obj 66 210 phasor~;
#X obj 66 237 *~ 0.5;
#X obj 66 289 clip~ -0.5 0.5;
#X obj 66 341 hip~ 5;
#X obj 66 315 cos~;
#X obj 66 414 linear_pan~;
#X obj 406 158 loadbang;
#X obj 66 263 *~ 3;
#X obj 147 229 line~;
#X obj 66 387 *~;
#X msg 147 203 \$1 50;
#X obj 147 177 / 127;
#X obj 399 72 loadbang;
#X msg 399 99 12;
#X obj 66 176 mtof;
#X obj 34 44 inlet;
#X obj 148 47 inlet;
#X obj 264 51 inlet;
#X text 5 16 midinote(0-127);
#X text 130 19 volume(0-127);
#X text 244 19 panning(0-127);
#X obj 78 479 dac~;
#X obj 235 178 / 127;
#X obj 406 184 random 128;
#X connect 0 0 1 0;
#X connect 1 0 7 0;
#X connect 2 0 4 0;
#X connect 3 0 9 0;
#X connect 4 0 3 0;
#X connect 5 0 21 0;
#X connect 5 1 21 1;
#X connect 6 0 23 0;
#X connect 7 0 2 0;
#X connect 8 0 9 1;
#X connect 9 0 5 0;
#X connect 10 0 8 0;
#X connect 11 0 10 0;
#X connect 12 0 13 0;
#X connect 13 0 11 0;
#X connect 14 0 0 0;
#X connect 15 0 14 0;
#X connect 16 0 11 0;
#X connect 17 0 22 0;
#X connect 22 0 5 1;
#X connect 23 0 22 0;
