#N canvas 493 324 502 383 16;
#X declare -lib mrpeach;
#X obj 105 59 import mrpeach;
#X obj 102 252 udpsend;
#X obj 102 214 packOSC;
#X floatatom 14 103 5 0 127 0 - - -;
#X floatatom 229 111 5 0 127 0 - - -;
#X floatatom 231 179 5 0 127 0 - - -;
#X floatatom 228 236 5 0 127 0 - - -;
#X msg 13 133 send /johann midi \$1;
#X msg 229 141 send /johann amp \$1;
#X msg 231 209 send /johann pan \$1;
#X msg 228 266 send /johann dur \$1;
#X msg 278 307 send /johann trig;
#X msg 74 347 disconnect;
#X msg 28 314 connect 127.0.0.1 8876;
#X text 293 341 click trig to play;
#X connect 2 0 1 0;
#X connect 3 0 7 0;
#X connect 4 0 8 0;
#X connect 5 0 9 0;
#X connect 6 0 10 0;
#X connect 7 0 2 0;
#X connect 8 0 2 0;
#X connect 9 0 2 0;
#X connect 10 0 2 0;
#X connect 11 0 2 0;
#X connect 12 0 1 0;
#X connect 13 0 1 0;
