#N canvas 200 107 540 533 12;
#X obj 66 210 phasor~;
#X obj 66 237 *~ 0.5;
#X obj 66 289 clip~ -0.5 0.5;
#X obj 66 368 hip~ 5;
#X obj 66 315 cos~;
#X obj 67 429 linear_pan~;
#X obj 455 157 loadbang;
#X obj 66 263 *~ 3;
#X obj 147 229 line~;
#X obj 66 397 *~;
#X msg 147 203 \$1 50;
#X obj 147 177 / 127;
#X obj 459 94 loadbang;
#X msg 459 121 12;
#X obj 66 176 mtof;
#X obj 34 44 inlet;
#X obj 148 47 inlet;
#X obj 264 51 inlet;
#X text 5 16 midinote(0-127);
#X text 130 19 volume(0-127);
#X text 244 19 panning(0-127);
#X obj 78 479 dac~;
#X obj 235 178 / 127;
#X obj 455 183 random 128;
#X obj 363 46 inlet;
#X floatatom 81 136 5 0 0 0 - - -;
#X obj 236 400 line~;
#X obj 66 341 *~;
#X msg 236 373 1 \, 0 \$1;
#X obj 236 347 f;
#X obj 458 225 loadbang;
#X obj 264 287 clip 0 127;
#X obj 264 313 * 10;
#X msg 458 252 50;
#X text 362 18 dur(0-127);
#X obj 451 44 inlet;
#X text 448 17 trig(bang);
#X connect 0 0 1 0;
#X connect 1 0 7 0;
#X connect 2 0 4 0;
#X connect 3 0 9 0;
#X connect 4 0 27 0;
#X connect 5 0 21 0;
#X connect 5 1 21 1;
#X connect 6 0 23 0;
#X connect 7 0 2 0;
#X connect 8 0 9 1;
#X connect 9 0 5 0;
#X connect 10 0 8 0;
#X connect 11 0 10 0;
#X connect 12 0 13 0;
#X connect 13 0 11 0;
#X connect 14 0 0 0;
#X connect 15 0 14 0;
#X connect 16 0 11 0;
#X connect 17 0 22 0;
#X connect 22 0 5 1;
#X connect 23 0 22 0;
#X connect 24 0 31 0;
#X connect 25 0 14 0;
#X connect 26 0 27 1;
#X connect 27 0 3 0;
#X connect 28 0 26 0;
#X connect 29 0 28 0;
#X connect 30 0 33 0;
#X connect 31 0 32 0;
#X connect 32 0 29 1;
#X connect 33 0 31 0;
#X connect 35 0 29 0;
