#N canvas 589 26 685 541 10;
#X obj 98 21 papes_input_camera;
#X obj 103 393 gemwin;
#X msg 129 369 destroy;
#X msg 129 348 create;
#X obj 103 371 tgl 15 0 empty empty empty 17 7 0 10 -262144 -1 -1 1
1;
#X obj 120 94 hsl 128 15 0 1 0 0 empty empty empty -2 -8 0 10 -262144
-1 -1 12700 1;
#X msg 291 61 rec;
#X msg 191 377 frame 60;
#X obj 195 356 loadbang;
#X obj 98 286 papes_output_rectangle;
#X msg 440 270 sx \$1;
#X floatatom 480 270 5 0 0 0 - - -;
#X floatatom 480 289 5 0 0 0 - - -;
#X msg 440 289 sy \$1;
#X floatatom 399 269 5 0 0 0 - - -;
#X floatatom 399 288 5 0 0 0 - - -;
#X floatatom 399 307 5 0 0 0 - - -;
#X msg 359 269 rx \$1;
#X msg 359 288 ry \$1;
#X msg 359 307 rz \$1;
#X floatatom 315 269 5 0 0 0 - - -;
#X floatatom 315 288 5 0 0 0 - - -;
#X floatatom 315 307 5 0 0 0 - - -;
#X msg 275 269 tx \$1;
#X msg 275 288 ty \$1;
#X msg 275 307 tz \$1;
#X floatatom 559 270 5 0 0 0 - - -;
#X floatatom 559 289 5 0 0 0 - - -;
#X msg 519 270 w \$1;
#X msg 519 289 h \$1;
#X msg 191 397 dimen 640 480;
#X msg 464 319 visible \$1;
#X obj 535 320 tgl 15 0 empty empty empty 17 7 0 10 -262144 -1 -1 0
1;
#X msg 464 358 color \$1 \$1 \$1;
#X obj 467 340 hsl 128 15 0 1 0 0 empty empty empty -2 -8 0 10 -262144
-1 -1 12700 1;
#X obj 98 113 papes_effect_sample5sec;
#X obj 152 175 pix_record;
#X msg 292 380 border 0;
#X obj 396 378 tgl 15 0 empty empty empty 17 7 0 10 -262144 -1 -1 1
1;
#X msg 390 399 fullscreen \$1;
#X obj 494 385 tgl 15 0 empty empty empty 17 7 0 10 -262144 -1 -1 1
1;
#X msg 491 407 menubar \$1;
#X text 319 61 start recording 300 frames;
#X obj 315 424 key;
#X obj 321 457 sel 27;
#X obj 172 51 loadbang;
#X msg 175 72 1;
#X obj 452 135 sel 1 0;
#X obj 465 102 tgl 15 0 empty empty empty 17 7 0 10 -262144 -1 -1 0
1;
#X obj 440 160 bng 15 250 50 0 empty empty empty 17 7 0 10 -262144
-1 -1;
#X obj 463 165 bng 15 250 50 0 empty empty empty 17 7 0 10 -262144
-1 -1;
#X obj 354 229 line;
#X msg 352 206 0 \, 1 1000;
#X obj 472 217 line;
#X msg 470 194 1 \, 0 1000;
#X obj 365 183 delay 5000;
#X msg 312 181 goto 0;
#X obj 525 74 comport 2 9600;
#X msg 543 48 devices;
#X msg 543 18 close;
#X msg 585 20 open 2;
#X floatatom 549 130 5 0 0 0 - - -;
#X obj 556 189 change;
#X floatatom 560 216 5 0 0 0 - - -;
#X floatatom 593 147 5 0 0 0 - - -;
#X obj 504 19 vsl 15 128 0 255 0 0 empty empty empty 0 -9 0 10 -262144
-1 -1 3935 1;
#X obj 541 96 mapping/smooth 0.05;
#X obj 560 239 speedlim 100;
#X obj 549 152 > 100;
#X connect 0 0 35 0;
#X connect 2 0 1 0;
#X connect 3 0 1 0;
#X connect 4 0 1 0;
#X connect 5 0 35 1;
#X connect 6 0 35 2;
#X connect 7 0 1 0;
#X connect 8 0 7 0;
#X connect 8 0 30 0;
#X connect 10 0 9 1;
#X connect 11 0 10 0;
#X connect 12 0 13 0;
#X connect 13 0 9 1;
#X connect 14 0 17 0;
#X connect 15 0 18 0;
#X connect 16 0 19 0;
#X connect 17 0 9 1;
#X connect 18 0 9 1;
#X connect 19 0 9 1;
#X connect 20 0 23 0;
#X connect 21 0 24 0;
#X connect 22 0 25 0;
#X connect 23 0 9 1;
#X connect 24 0 9 1;
#X connect 25 0 9 1;
#X connect 26 0 28 0;
#X connect 27 0 29 0;
#X connect 28 0 9 1;
#X connect 29 0 9 1;
#X connect 30 0 1 0;
#X connect 31 0 9 1;
#X connect 32 0 31 0;
#X connect 33 0 9 1;
#X connect 34 0 33 0;
#X connect 35 0 9 0;
#X connect 37 0 1 0;
#X connect 38 0 39 0;
#X connect 39 0 1 0;
#X connect 40 0 41 0;
#X connect 41 0 1 0;
#X connect 43 0 44 0;
#X connect 44 0 40 0;
#X connect 45 0 46 0;
#X connect 46 0 5 0;
#X connect 47 0 49 0;
#X connect 47 1 50 0;
#X connect 48 0 47 0;
#X connect 49 0 6 0;
#X connect 49 0 55 0;
#X connect 50 0 54 0;
#X connect 51 0 34 0;
#X connect 52 0 51 0;
#X connect 53 0 34 0;
#X connect 54 0 53 0;
#X connect 55 0 52 0;
#X connect 55 0 56 0;
#X connect 56 0 35 2;
#X connect 57 0 66 0;
#X connect 58 0 57 0;
#X connect 59 0 57 0;
#X connect 60 0 57 0;
#X connect 61 0 68 0;
#X connect 62 0 63 0;
#X connect 63 0 67 0;
#X connect 64 0 68 1;
#X connect 65 0 61 0;
#X connect 66 0 65 0;
#X connect 67 0 48 0;
#X connect 68 0 62 0;
