#N canvas 625 22 771 650 16;
#X obj 143 43 gemhead;
#X obj 156 562 gemwin;
#X msg 195 502 create;
#X obj 160 523 tgl 15 0 empty empty empty 17 7 0 10 -262144 -1 -1 1
1;
#X obj 138 132 pix_crop;
#X floatatom 243 98 5 0 0 0 - - -;
#X floatatom 244 140 5 0 0 0 - - -;
#X msg 261 14 dimen 640 480;
#X obj 34 234 separator;
#X obj 32 266 pix_texture;
#X floatatom 177 240 5 0 0 0 - - -;
#X obj 347 241 separator;
#X obj 345 273 pix_texture;
#X floatatom 490 247 5 0 0 0 - - -;
#X floatatom 447 380 5 0 0 0 - - -;
#X obj 261 51 unpack s f f;
#X obj 348 87 / 2;
#X msg 238 582 border 0;
#X msg 196 530 destroy;
#X msg 302 544 offset 50 20;
#X floatatom 506 379 5 0 0 0 - - -;
#X floatatom 552 244 5 0 0 0 - - -;
#X floatatom 98 378 5 0 0 0 - - -;
#X floatatom 158 378 5 0 0 0 - - -;
#X floatatom 234 241 5 0 0 0 - - -;
#X obj 33 298 translateXYZ 0 1.5 0;
#X obj 346 305 translateXYZ 0 -1.5 0;
#X obj 345 340 rectangle 4 -1.5;
#X obj 32 333 rectangle 4 1.5;
#X msg 536 523 1.5;
#X msg 535 556 -1.5;
#X obj 552 495 bng 15 250 50 0 empty empty empty 17 7 0 10 -262144
-1 -1;
#X msg 600 558 1.5;
#X msg 593 524 -1.5;
#X obj 611 496 bng 15 250 50 0 empty empty empty 17 7 0 10 -262144
-1 -1;
#X obj 142 80 pix_video;
#X obj 322 177 pix_delay 100;
#X floatatom 431 144 5 0 99 1 optional_delay - -;
#X obj 416 14 loadbang;
#X text 478 469 click for different versions;
#X connect 0 0 35 0;
#X connect 2 0 1 0;
#X connect 3 0 1 0;
#X connect 4 0 8 0;
#X connect 4 0 36 0;
#X connect 5 0 4 1;
#X connect 6 0 4 2;
#X connect 7 0 15 0;
#X connect 7 0 35 0;
#X connect 8 0 9 0;
#X connect 9 0 25 0;
#X connect 10 0 25 1;
#X connect 11 0 12 0;
#X connect 12 0 26 0;
#X connect 13 0 26 1;
#X connect 14 0 27 1;
#X connect 15 1 5 0;
#X connect 15 2 16 0;
#X connect 16 0 6 0;
#X connect 17 0 1 0;
#X connect 18 0 1 0;
#X connect 19 0 1 0;
#X connect 20 0 27 2;
#X connect 21 0 26 2;
#X connect 22 0 28 1;
#X connect 23 0 28 2;
#X connect 24 0 25 2;
#X connect 25 0 28 0;
#X connect 26 0 27 0;
#X connect 29 0 20 0;
#X connect 30 0 23 0;
#X connect 31 0 29 0;
#X connect 31 0 30 0;
#X connect 32 0 23 0;
#X connect 33 0 20 0;
#X connect 34 0 32 0;
#X connect 34 0 33 0;
#X connect 35 0 4 0;
#X connect 36 0 11 0;
#X connect 37 0 36 1;
#X connect 38 0 7 0;
