#N canvas 667 22 689 655 16;
#X obj 143 43 gemhead;
#X obj 41 533 gemwin;
#X msg 80 473 create;
#X obj 45 494 tgl 15 0 empty empty empty 17 7 0 10 -262144 -1 -1 1
1;
#X obj 142 80 pix_video;
#X obj 138 132 pix_crop;
#X floatatom 243 98 5 0 0 0 - - -;
#X floatatom 244 140 5 0 0 0 - - -;
#X msg 261 14 dimen 640 480;
#X obj 34 234 separator;
#X obj 32 266 pix_texture;
#X obj 32 334 rectangle 2 3;
#X floatatom 177 240 5 0 0 0 - - -;
#X obj 33 298 translateXYZ -2 0 0;
#X obj 347 241 separator;
#X obj 345 273 pix_texture;
#X floatatom 490 247 5 0 0 0 - - -;
#X obj 346 305 translateXYZ 2 0 0;
#X floatatom 447 380 5 0 0 0 - - -;
#X obj 345 340 rectangle -2 3;
#X obj 261 51 unpack s f f;
#X obj 319 88 / 2;
#X msg 188 543 border 0;
#X msg 81 501 destroy;
#X msg 187 515 offset 50 20;
#X obj 406 15 loadbang;
#X text 85 614 screenshot osx: cmd+shift+4 \, then press space;
#X text 318 533 recreate gemwin to get these to work;
#X connect 0 0 4 0;
#X connect 2 0 1 0;
#X connect 3 0 1 0;
#X connect 4 0 5 0;
#X connect 5 0 9 0;
#X connect 5 0 14 0;
#X connect 6 0 5 1;
#X connect 7 0 5 2;
#X connect 8 0 4 0;
#X connect 8 0 20 0;
#X connect 9 0 10 0;
#X connect 10 0 13 0;
#X connect 12 0 13 1;
#X connect 13 0 11 0;
#X connect 14 0 15 0;
#X connect 15 0 17 0;
#X connect 16 0 17 1;
#X connect 17 0 19 0;
#X connect 18 0 19 1;
#X connect 20 1 21 0;
#X connect 20 2 7 0;
#X connect 21 0 6 0;
#X connect 22 0 1 0;
#X connect 23 0 1 0;
#X connect 24 0 1 0;
#X connect 25 0 8 0;
