#N canvas 688 42 550 540 10;
#X obj 57 77 gemhead;
#X floatatom 287 189 5 0 19 0 - - -;
#X obj 20 467 gemwin;
#X msg 25 430 create;
#X msg 79 430 destroy;
#X obj 70 464 tgl 15 0 empty empty empty 17 7 0 10 -262144 -1 -1 0
1;
#X msg 94 466 border 0;
#X obj 279 77 gemhead;
#X msg 109 41 dimen 640 480;
#X obj 126 250 pix_mix;
#X obj 119 301 rectangle 4 3;
#X obj 123 276 pix_texture;
#X floatatom 299 313 5 0 1 0 xfade - -;
#X obj 201 190 pix_delay 20;
#X obj 57 106 pix_video;
#X obj 280 107 pix_video;
#X obj 294 285 hsl 128 15 0 1 0 0 empty empty empty -2 -8 0 10 -262144
-1 -1 0 1;
#X text 249 210 optional compensation for dv cam latency;
#X text 250 226 try if one is dv and other is webcam;
#X obj 214 42 loadbang;
#X text 71 11 connect 2 cameras and then reopen this patch;
#X connect 0 0 14 0;
#X connect 1 0 13 1;
#X connect 3 0 2 0;
#X connect 4 0 2 0;
#X connect 5 0 2 0;
#X connect 6 0 2 0;
#X connect 7 0 15 0;
#X connect 8 0 14 0;
#X connect 8 0 15 0;
#X connect 9 0 11 0;
#X connect 11 0 10 0;
#X connect 12 0 9 2;
#X connect 13 0 9 1;
#X connect 14 0 9 0;
#X connect 15 0 13 0;
#X connect 16 0 12 0;
#X connect 19 0 8 0;
