#N canvas 571 22 809 665 16;
#X obj 151 35 gemhead;
#X obj 156 553 gemwin;
#X obj 151 79 pix_video;
#X msg 167 515 create;
#X msg 238 516 destroy;
#X obj 143 513 tgl 15 0 empty empty empty 17 7 0 10 -262144 -1 -1 1
1;
#X msg 266 31 dimen 640 480;
#X obj 175 419 rectangle 4 3;
#X obj 175 387 pix_texture;
#X obj 175 300 gemhead;
#X obj 493 32 pix_buffer mov 120;
#X obj 114 181 pix_buffer_write mov;
#X obj 175 346 pix_buffer_read mov;
#X obj 373 145 counter 0 119;
#X obj 274 115 spigot;
#X obj 378 92 tgl 15 0 empty empty empty 17 7 0 10 -262144 -1 -1 0
1;
#X floatatom 371 178 5 0 0 0 - - -;
#X obj 278 142 bng 15 250 50 0 empty empty empty 17 7 0 10 -262144
-1 -1;
#X obj 500 178 bng 15 250 50 0 empty empty empty 17 7 0 10 -262144
-1 -1;
#X obj 504 203 t 0;
#X obj 423 339 tgl 15 0 empty empty empty 17 7 0 10 -262144 -1 -1 0
1;
#X obj 420 401 counter 0 119;
#X floatatom 416 439 5 0 0 0 - - -;
#X floatatom 560 360 5 0 0 0 - - -;
#X obj 421 365 metro 16.667;
#X msg 190 584 frame 60;
#X text 399 86 click to record;
#X msg 527 554 0;
#X msg 526 587 1;
#X msg 525 621 2;
#X obj 531 527 tgl 15 0 empty empty empty 17 7 0 10 -262144 -1 -1 0
1;
#X floatatom 606 461 5 0 119 1 looppoint_min - -;
#X floatatom 612 492 5 0 119 1 looppoint_max - -;
#X obj 278 58 loadbang;
#X obj 287 582 loadbang;
#X text 384 307 click to start playback;
#X text 613 357 speed;
#X text 556 523 change direction;
#X text 572 554 forward;
#X text 574 588 backward;
#X text 576 617 back and forth;
#X connect 0 0 2 0;
#X connect 2 0 14 0;
#X connect 2 0 11 0;
#X connect 3 0 1 0;
#X connect 4 0 1 0;
#X connect 5 0 1 0;
#X connect 6 0 2 0;
#X connect 8 0 7 0;
#X connect 9 0 12 0;
#X connect 12 0 8 0;
#X connect 13 0 16 0;
#X connect 13 3 18 0;
#X connect 14 0 17 0;
#X connect 15 0 14 1;
#X connect 16 0 11 1;
#X connect 17 0 13 0;
#X connect 18 0 19 0;
#X connect 19 0 15 0;
#X connect 20 0 24 0;
#X connect 21 0 22 0;
#X connect 22 0 12 1;
#X connect 23 0 24 1;
#X connect 24 0 21 0;
#X connect 25 0 1 0;
#X connect 27 0 21 1;
#X connect 28 0 21 1;
#X connect 29 0 21 1;
#X connect 30 0 21 1;
#X connect 31 0 21 3;
#X connect 32 0 21 4;
#X connect 33 0 6 0;
#X connect 34 0 25 0;
