#N canvas 612 22 737 632 16;
#X obj 151 35 gemhead;
#X obj 156 553 gemwin;
#X obj 149 85 pix_video;
#X msg 167 515 create;
#X msg 238 516 destroy;
#X obj 143 513 tgl 15 0 empty empty empty 17 7 0 10 -262144 -1 -1 1
1;
#X msg 267 38 dimen 640 480;
#X obj 175 419 rectangle 4 3;
#X obj 175 387 pix_texture;
#X obj 493 32 pix_buffer still 6;
#X obj 131 156 pix_buffer_write still;
#X msg 306 107 0;
#X msg 351 106 1;
#X msg 398 107 2;
#X msg 443 108 3;
#X msg 487 110 4;
#X msg 533 111 5;
#X text 580 109 click to write;
#X obj 175 306 pix_buffer_read still;
#X obj 175 260 gemhead;
#X msg 298 264 0;
#X msg 343 263 1;
#X msg 390 264 2;
#X msg 435 265 3;
#X msg 479 267 4;
#X msg 525 268 5;
#X text 572 266 click to read;
#X obj 525 501 metro 100;
#X obj 526 472 tgl 15 0 empty empty empty 17 7 0 10 -262144 -1 -1 1
1;
#X obj 525 536 counter 0 5;
#X floatatom 599 470 5 0 0 0 - - -;
#X obj 533 356 tgl 15 0 empty empty empty 17 7 0 10 -262144 -1 -1 1
1;
#X obj 532 420 counter 0 5;
#X floatatom 606 354 5 0 0 0 - - -;
#X text 498 574 simple stop motion anim;
#X obj 303 66 loadbang;
#X obj 287 582 loadbang;
#X msg 190 584 frame 60;
#X obj 532 385 metro 1000;
#X connect 0 0 2 0;
#X connect 2 0 10 0;
#X connect 3 0 1 0;
#X connect 4 0 1 0;
#X connect 5 0 1 0;
#X connect 6 0 2 0;
#X connect 8 0 7 0;
#X connect 11 0 10 1;
#X connect 12 0 10 1;
#X connect 13 0 10 1;
#X connect 14 0 10 1;
#X connect 15 0 10 1;
#X connect 16 0 10 1;
#X connect 18 0 8 0;
#X connect 19 0 18 0;
#X connect 20 0 18 1;
#X connect 21 0 18 1;
#X connect 22 0 18 1;
#X connect 23 0 18 1;
#X connect 24 0 18 1;
#X connect 25 0 18 1;
#X connect 27 0 29 0;
#X connect 28 0 27 0;
#X connect 29 0 18 1;
#X connect 30 0 27 1;
#X connect 31 0 38 0;
#X connect 32 0 10 1;
#X connect 33 0 38 1;
#X connect 35 0 6 0;
#X connect 36 0 37 0;
#X connect 37 0 1 0;
#X connect 38 0 32 0;
