#N canvas 0 22 478 402 16;
#X text 73 99 ala = 194.95.203.125;
#X text 72 126 annie = 194.95.203.74;
#X text 74 73 johann = 194.95.203.157;
#X text 71 187 joon = 194.95.203.201;
#X text 74 219 F = 194.95.203.126;
#X text 72 159 ahn = 194.95.203.78;
#X text 74 327 fredrik = 194.95.203.184;
#X text 75 256 izm = 194.95.203.214;
#X text 71 45 m9dfukc = 194.95.203.154;
