#N canvas 633 22 726 731 16;
#X declare -lib mrpeach;
#X obj 79 85 import mrpeach;
#X obj 74 305 udpsend;
#X obj 76 249 packOSC;
#X msg 175 398 disconnect;
#X msg 359 247 send /hallo 0.55 0.3 hesitate;
#X floatatom 364 89 5 0 0 0 - - -;
#X obj 91 651 unpackOSC;
#X obj 56 687 bng 15 250 50 0 empty empty empty 17 7 0 10 -262144 -1
-1;
#X obj 90 684 print here;
#X msg 366 208 send /mari hello 5;
#X msg 363 159 send /sascha 10 20;
#X obj 90 617 udpreceive 8877;
#X obj 221 672 s data;
#X msg 415 388 connect 194.95.203.201 8877;
#X obj 383 589 route /fredrik;
#X obj 389 632 route /freq;
#X floatatom 388 668 5 0 0 0 - - -;
#X msg 412 424 connect 194.95.203.78 8877;
#X msg 412 457 connect 194.95.203.74 8877;
#X msg 411 489 connect 194.95.203.125 8877;
#X msg 408 548 connect 194.95.203.154 8877;
#X msg 411 516 connect 194.95.203.157 8877;
#X msg 413 354 connect 194.95.203.126 8877;
#X msg 413 318 connect 194.95.203.214 8877;
#X msg 24 152 connect 194.95.203.255 8877;
#X text 128 34 x.x.x.255 = magic number broadcast addy;
#X msg 364 117 send /fredrik /freq \$1;
#X connect 2 0 1 0;
#X connect 3 0 1 0;
#X connect 4 0 2 0;
#X connect 5 0 26 0;
#X connect 6 0 7 0;
#X connect 6 0 8 0;
#X connect 6 0 12 0;
#X connect 6 0 14 0;
#X connect 9 0 2 0;
#X connect 10 0 2 0;
#X connect 11 0 6 0;
#X connect 13 0 1 0;
#X connect 14 0 15 0;
#X connect 15 0 16 0;
#X connect 17 0 1 0;
#X connect 18 0 1 0;
#X connect 19 0 1 0;
#X connect 20 0 1 0;
#X connect 21 0 1 0;
#X connect 22 0 1 0;
#X connect 23 0 1 0;
#X connect 24 0 1 0;
#X connect 26 0 2 0;
