#N canvas 0 22 629 484 10;
#X obj 67 26 inlet;
#X obj 66 240 rectangle;
#X obj 66 136 pix_texture;
#X floatatom 191 171 5 0 0 0 - - -;
#X floatatom 154 170 5 0 0 0 - - -;
#X obj 66 112 separator;
#X obj 66 187 rotateXYZ;
#X floatatom 111 211 5 0 0 0 - - -;
#X obj 66 215 ortho;
#X floatatom 147 212 5 0 0 0 - - -;
#X floatatom 183 213 5 0 0 0 - - -;
#X floatatom 82 263 5 0 0 0 - - -;
#X floatatom 124 264 5 0 0 0 - - -;
#X obj 161 141 unpack f f f f f f f;
#X obj 66 162 translateXYZ;
#X obj 179 26 inlet;
#X connect 0 0 5 0;
#X connect 2 0 14 0;
#X connect 3 0 14 2;
#X connect 4 0 14 1;
#X connect 5 0 2 0;
#X connect 6 0 8 0;
#X connect 7 0 6 1;
#X connect 8 0 1 0;
#X connect 9 0 6 2;
#X connect 10 0 6 3;
#X connect 11 0 1 1;
#X connect 12 0 1 2;
#X connect 13 0 4 0;
#X connect 13 1 3 0;
#X connect 13 2 7 0;
#X connect 13 3 9 0;
#X connect 13 4 10 0;
#X connect 13 5 11 0;
#X connect 13 6 12 0;
#X connect 14 0 6 0;
#X connect 15 0 13 0;
