#N canvas 0 22 674 480 10;
#X obj 54 57 inlet;
#X obj 53 349 rectangle;
#X obj 53 245 pix_texture;
#X floatatom 178 280 5 0 0 0 - - -;
#X floatatom 141 279 5 0 0 0 - - -;
#X obj 54 216 separator;
#X obj 53 296 rotateXYZ;
#X floatatom 98 320 5 0 0 0 - - -;
#X obj 53 324 ortho;
#X floatatom 134 321 5 0 0 0 - - -;
#X floatatom 170 322 5 0 0 0 - - -;
#X floatatom 69 372 5 0 0 0 - - -;
#X floatatom 111 373 5 0 0 0 - - -;
#X obj 148 250 unpack f f f f f f f;
#X obj 53 271 translateXYZ;
#X obj 166 57 inlet;
#X obj 296 57 inlet;
#X obj 272 393 t b b;
#X msg 279 423 -1;
#X obj 249 443 * 1;
#X obj 319 392 t b b;
#X msg 326 422 1;
#X obj 387 402 t b b;
#X msg 394 432 -1;
#X obj 364 452 * 1;
#X obj 434 401 t b b;
#X msg 441 431 1;
#X obj 365 57 inlet;
#X obj 286 366 sel 0 1;
#X obj 397 371 sel 0 1;
#X obj 439 60 inlet;
#X obj 48 109 gate 2;
#X obj 54 187 pix_buffer_read \$0-mybuf;
#X obj 239 190 pix_buffer_write \$0-mybuf;
#X obj 51 141 t a b;
#X obj 246 159 t a b;
#X obj 516 59 inlet;
#X obj 578 60 inlet;
#X obj 319 160 counter 0 9;
#X obj 98 158 counter 0 9;
#X text 47 33 gem;
#X text 121 36 [pos \, rot \, size];
#X text 288 35 flipV;
#X text 360 34 flipH;
#X text 424 36 off/on/loop;
#X text 510 37 loopmax;
#X text 568 40 looptype;
#X obj 416 233 pix_buffer \$0-mybuf 100;
#X connect 0 0 31 1;
#X connect 2 0 14 0;
#X connect 3 0 14 2;
#X connect 4 0 14 1;
#X connect 5 0 2 0;
#X connect 6 0 8 0;
#X connect 7 0 6 1;
#X connect 8 0 1 0;
#X connect 9 0 6 2;
#X connect 10 0 6 3;
#X connect 11 0 1 1;
#X connect 12 0 1 2;
#X connect 13 0 4 0;
#X connect 13 1 3 0;
#X connect 13 2 7 0;
#X connect 13 3 9 0;
#X connect 13 4 10 0;
#X connect 13 5 19 0;
#X connect 13 6 24 0;
#X connect 14 0 6 0;
#X connect 15 0 13 0;
#X connect 16 0 28 0;
#X connect 17 0 19 0;
#X connect 17 1 18 0;
#X connect 18 0 19 1;
#X connect 19 0 11 0;
#X connect 20 0 19 0;
#X connect 20 1 21 0;
#X connect 21 0 19 1;
#X connect 22 0 24 0;
#X connect 22 1 23 0;
#X connect 23 0 24 1;
#X connect 24 0 12 0;
#X connect 25 0 24 0;
#X connect 25 1 26 0;
#X connect 26 0 24 1;
#X connect 27 0 29 0;
#X connect 28 0 17 0;
#X connect 28 1 20 0;
#X connect 29 0 22 0;
#X connect 29 1 25 0;
#X connect 30 0 31 0;
#X connect 31 0 35 0;
#X connect 31 1 34 0;
#X connect 32 0 5 0;
#X connect 33 0 5 0;
#X connect 34 0 32 0;
#X connect 34 1 39 0;
#X connect 35 0 33 0;
#X connect 35 1 38 0;
#X connect 36 0 38 4;
#X connect 36 0 39 4;
#X connect 37 0 39 1;
#X connect 38 0 33 1;
#X connect 39 0 32 1;
