#N canvas 597 22 712 580 10;
#X obj 64 54 gemhead;
#X obj 106 494 gemwin;
#X msg 152 471 destroy;
#X msg 151 446 create;
#X obj 111 433 tgl 15 0 empty empty empty 17 7 0 10 -262144 -1 -1 1
1;
#X obj 68 91 pix_video;
#X msg 143 87 dimen 640 480;
#X msg 80 177 -2.5 2 0 0 0 2 2;
#X msg 235 166 0 2 0 0 0 2 2;
#X msg 362 138 2.5 2 0 0 0 2 2;
#X obj 329 78 loadbang;
#X obj 406 221 unpack f f f f f f f;
#X floatatom 400 241 5 0 0 0 - - -;
#X floatatom 435 242 5 0 0 0 - - -;
#X floatatom 401 262 5 0 0 0 - - -;
#X floatatom 437 263 5 0 0 0 - - -;
#X floatatom 473 263 5 0 0 0 - - -;
#X floatatom 402 282 5 0 0 0 - - -;
#X floatatom 441 281 5 0 0 0 - - -;
#X obj 397 318 pack f f f f f f f;
#X obj 368 306 bng 15 250 50 0 empty empty empty 17 7 0 10 -262144
-1 -1;
#X obj 67 218 unpack f f f f f f f;
#X floatatom 61 238 5 0 0 0 - - -;
#X floatatom 96 239 5 0 0 0 - - -;
#X floatatom 62 259 5 0 0 0 - - -;
#X floatatom 98 260 5 0 0 0 - - -;
#X floatatom 134 260 5 0 0 0 - - -;
#X floatatom 63 279 5 0 0 0 - - -;
#X floatatom 102 278 5 0 0 0 - - -;
#X obj 58 315 pack f f f f f f f;
#X obj 29 303 bng 15 250 50 0 empty empty empty 17 7 0 10 -262144 -1
-1;
#X obj 218 222 unpack f f f f f f f;
#X floatatom 212 242 5 0 0 0 - - -;
#X floatatom 247 243 5 0 0 0 - - -;
#X floatatom 213 263 5 0 0 0 - - -;
#X floatatom 249 264 5 0 0 0 - - -;
#X floatatom 285 264 5 0 0 0 - - -;
#X floatatom 214 283 5 0 0 0 - - -;
#X floatatom 253 282 5 0 0 0 - - -;
#X obj 209 319 pack f f f f f f f;
#X obj 180 307 bng 15 250 50 0 empty empty empty 17 7 0 10 -262144
-1 -1;
#X obj 172 353 myrectOnOff;
#X obj 180 401 tgl 15 0 empty empty empty 17 7 0 10 -262144 -1 -1 1
1;
#X obj 202 401 tgl 15 0 empty empty empty 17 7 0 10 -262144 -1 -1 1
1;
#X floatatom 225 401 5 0 0 0 - - -;
#X floatatom 262 399 5 0 0 0 - - -;
#X floatatom 300 397 5 0 0 0 - - -;
#X obj 366 356 myrectOnOff;
#X obj 374 404 tgl 15 0 empty empty empty 17 7 0 10 -262144 -1 -1 1
1;
#X obj 396 404 tgl 15 0 empty empty empty 17 7 0 10 -262144 -1 -1 1
1;
#X floatatom 419 404 5 0 0 0 - - -;
#X floatatom 456 402 5 0 0 0 - - -;
#X floatatom 494 400 5 0 0 0 - - -;
#X obj 8 355 myrectOnOff;
#X obj 16 403 tgl 15 0 empty empty empty 17 7 0 10 -262144 -1 -1 1
1;
#X obj 38 403 tgl 15 0 empty empty empty 17 7 0 10 -262144 -1 -1 1
1;
#X floatatom 61 403 5 0 0 0 - - -;
#X floatatom 98 401 5 0 0 0 - - -;
#X floatatom 136 399 5 0 0 0 - - -;
#X connect 0 0 5 0;
#X connect 2 0 1 0;
#X connect 3 0 1 0;
#X connect 4 0 1 0;
#X connect 5 0 41 0;
#X connect 5 0 47 0;
#X connect 5 0 53 0;
#X connect 6 0 5 0;
#X connect 7 0 21 0;
#X connect 8 0 31 0;
#X connect 9 0 11 0;
#X connect 10 0 9 0;
#X connect 10 0 8 0;
#X connect 10 0 7 0;
#X connect 11 0 12 0;
#X connect 11 1 13 0;
#X connect 11 2 14 0;
#X connect 11 3 15 0;
#X connect 11 4 16 0;
#X connect 11 5 17 0;
#X connect 11 6 18 0;
#X connect 12 0 19 0;
#X connect 13 0 19 1;
#X connect 13 0 20 0;
#X connect 14 0 19 2;
#X connect 14 0 20 0;
#X connect 15 0 19 3;
#X connect 15 0 20 0;
#X connect 16 0 19 4;
#X connect 16 0 20 0;
#X connect 17 0 19 5;
#X connect 17 0 20 0;
#X connect 18 0 19 6;
#X connect 18 0 20 0;
#X connect 19 0 47 1;
#X connect 20 0 19 0;
#X connect 21 0 22 0;
#X connect 21 1 23 0;
#X connect 21 2 24 0;
#X connect 21 3 25 0;
#X connect 21 4 26 0;
#X connect 21 5 27 0;
#X connect 21 6 28 0;
#X connect 22 0 29 0;
#X connect 23 0 29 1;
#X connect 23 0 30 0;
#X connect 24 0 29 2;
#X connect 24 0 30 0;
#X connect 25 0 29 3;
#X connect 25 0 30 0;
#X connect 26 0 29 4;
#X connect 26 0 30 0;
#X connect 27 0 29 5;
#X connect 27 0 30 0;
#X connect 28 0 29 6;
#X connect 28 0 30 0;
#X connect 29 0 53 1;
#X connect 30 0 29 0;
#X connect 31 0 32 0;
#X connect 31 1 33 0;
#X connect 31 2 34 0;
#X connect 31 3 35 0;
#X connect 31 4 36 0;
#X connect 31 5 37 0;
#X connect 31 6 38 0;
#X connect 32 0 39 0;
#X connect 33 0 39 1;
#X connect 33 0 40 0;
#X connect 34 0 39 2;
#X connect 34 0 40 0;
#X connect 35 0 39 3;
#X connect 35 0 40 0;
#X connect 36 0 39 4;
#X connect 36 0 40 0;
#X connect 37 0 39 5;
#X connect 37 0 40 0;
#X connect 38 0 39 6;
#X connect 38 0 40 0;
#X connect 39 0 41 1;
#X connect 40 0 39 0;
#X connect 42 0 41 2;
#X connect 43 0 41 3;
#X connect 44 0 41 4;
#X connect 45 0 41 5;
#X connect 46 0 41 6;
#X connect 48 0 47 2;
#X connect 49 0 47 3;
#X connect 50 0 47 4;
#X connect 51 0 47 5;
#X connect 52 0 47 6;
#X connect 54 0 53 2;
#X connect 55 0 53 3;
#X connect 56 0 53 4;
#X connect 57 0 53 5;
#X connect 58 0 53 6;
