#N canvas 588 65 712 580 10;
#X obj 64 54 gemhead;
#X obj 106 494 gemwin;
#X msg 152 471 destroy;
#X msg 151 446 create;
#X obj 111 433 tgl 15 0 empty empty empty 17 7 0 10 -262144 -1 -1 1
1;
#X obj 68 91 pix_video;
#X msg 143 87 dimen 640 480;
#X obj 44 209 myrect;
#X obj 164 216 myrect;
#X obj 313 221 myrect;
#X msg 80 177 -2.5 2 0 0 0 2 2;
#X msg 200 184 0 2 0 0 0 2 2;
#X msg 349 189 2.5 2 0 0 0 2 2;
#X obj 329 78 loadbang;
#X connect 0 0 5 0;
#X connect 2 0 1 0;
#X connect 3 0 1 0;
#X connect 4 0 1 0;
#X connect 5 0 7 0;
#X connect 5 0 8 0;
#X connect 5 0 9 0;
#X connect 6 0 5 0;
#X connect 10 0 7 1;
#X connect 11 0 8 1;
#X connect 12 0 9 1;
#X connect 13 0 12 0;
#X connect 13 0 11 0;
#X connect 13 0 10 0;
