#N canvas 565 40 766 543 10;
#X obj 64 54 gemhead;
#X obj 106 494 gemwin;
#X msg 152 471 destroy;
#X msg 151 446 create;
#X obj 111 433 tgl 15 0 empty empty empty 17 7 0 10 -262144 -1 -1 1
1;
#X obj 68 91 pix_video;
#X msg 143 87 dimen 640 480;
#X obj 173 299 rectangle;
#X obj 173 195 pix_texture;
#X floatatom 298 230 5 0 0 0 - - -;
#X floatatom 261 229 5 0 0 0 - - -;
#X obj 173 171 separator;
#X obj 173 246 rotateXYZ;
#X floatatom 218 270 5 0 0 0 - - -;
#X obj 173 274 ortho;
#X floatatom 254 271 5 0 0 0 - - -;
#X floatatom 290 272 5 0 0 0 - - -;
#X floatatom 189 322 5 0 0 0 - - -;
#X floatatom 231 323 5 0 0 0 - - -;
#X obj 268 200 unpack f f f f f f f;
#X obj 173 221 translateXYZ;
#X obj -81 294 rectangle;
#X obj -81 190 pix_texture;
#X floatatom 44 225 5 0 0 0 - - -;
#X floatatom 7 224 5 0 0 0 - - -;
#X obj -81 166 separator;
#X obj -81 241 rotateXYZ;
#X floatatom -36 265 5 0 0 0 - - -;
#X obj -81 269 ortho;
#X floatatom 0 266 5 0 0 0 - - -;
#X floatatom 36 267 5 0 0 0 - - -;
#X floatatom -65 317 5 0 0 0 - - -;
#X floatatom -23 318 5 0 0 0 - - -;
#X obj 14 195 unpack f f f f f f f;
#X obj -81 216 translateXYZ;
#X obj 419 304 rectangle;
#X obj 419 200 pix_texture;
#X floatatom 544 235 5 0 0 0 - - -;
#X floatatom 507 234 5 0 0 0 - - -;
#X obj 419 176 separator;
#X obj 419 251 rotateXYZ;
#X floatatom 464 275 5 0 0 0 - - -;
#X obj 419 279 ortho;
#X floatatom 500 276 5 0 0 0 - - -;
#X floatatom 536 277 5 0 0 0 - - -;
#X floatatom 435 327 5 0 0 0 - - -;
#X floatatom 477 328 5 0 0 0 - - -;
#X obj 514 205 unpack f f f f f f f;
#X obj 419 226 translateXYZ;
#X msg 518 148 2.5 0 0 0 0.4 1 1;
#X msg 17 140 0 0 0 0 0.4 1 1;
#X obj 387 57 loadbang;
#X msg 266 144 -2.5 0 0 0 0.4 1 1;
#X connect 0 0 5 0;
#X connect 2 0 1 0;
#X connect 3 0 1 0;
#X connect 4 0 1 0;
#X connect 5 0 11 0;
#X connect 5 0 25 0;
#X connect 5 0 39 0;
#X connect 6 0 5 0;
#X connect 8 0 20 0;
#X connect 9 0 20 2;
#X connect 10 0 20 1;
#X connect 11 0 8 0;
#X connect 12 0 14 0;
#X connect 13 0 12 1;
#X connect 14 0 7 0;
#X connect 15 0 12 2;
#X connect 16 0 12 3;
#X connect 17 0 7 1;
#X connect 18 0 7 2;
#X connect 19 0 10 0;
#X connect 19 1 9 0;
#X connect 19 2 13 0;
#X connect 19 3 15 0;
#X connect 19 4 16 0;
#X connect 19 5 17 0;
#X connect 19 6 18 0;
#X connect 20 0 12 0;
#X connect 22 0 34 0;
#X connect 23 0 34 2;
#X connect 24 0 34 1;
#X connect 25 0 22 0;
#X connect 26 0 28 0;
#X connect 27 0 26 1;
#X connect 28 0 21 0;
#X connect 29 0 26 2;
#X connect 30 0 26 3;
#X connect 31 0 21 1;
#X connect 32 0 21 2;
#X connect 33 0 24 0;
#X connect 33 1 23 0;
#X connect 33 2 27 0;
#X connect 33 3 29 0;
#X connect 33 4 30 0;
#X connect 33 5 31 0;
#X connect 33 6 32 0;
#X connect 34 0 26 0;
#X connect 36 0 48 0;
#X connect 37 0 48 2;
#X connect 38 0 48 1;
#X connect 39 0 36 0;
#X connect 40 0 42 0;
#X connect 41 0 40 1;
#X connect 42 0 35 0;
#X connect 43 0 40 2;
#X connect 44 0 40 3;
#X connect 45 0 35 1;
#X connect 46 0 35 2;
#X connect 47 0 38 0;
#X connect 47 1 37 0;
#X connect 47 2 41 0;
#X connect 47 3 43 0;
#X connect 47 4 44 0;
#X connect 47 5 45 0;
#X connect 47 6 46 0;
#X connect 48 0 40 0;
#X connect 49 0 47 0;
#X connect 50 0 33 0;
#X connect 51 0 50 0;
#X connect 51 0 52 0;
#X connect 51 0 49 0;
#X connect 51 0 6 0;
#X connect 52 0 19 0;
