#N canvas 558 78 762 588 16;
#X msg 74 455 create;
#X msg 145 485 dimen 800 600;
#X obj 34 465 tgl 15 0 empty empty empty 17 7 0 10 -262144 -1 -1 1
1;
#X msg 142 517 offset 140 0;
#X msg 178 457 destroy;
#X msg 145 545 border 0;
#X obj 66 25 gemhead;
#X obj 65 77 pix_video;
#X msg 174 74 dimen 640 480;
#X obj 38 505 gemwin;
#X obj 28 211 videoplaneAbstraction;
#X obj 80 261 videoplaneAbstraction;
#X obj 133 305 videoplaneAbstraction;
#X obj 197 356 videoplaneAbstraction;
#X msg 410 172 1 1 0 0 0 2 1;
#X msg 420 233 1.5 1.5 0 0 0 2 1;
#X obj 521 522 pack f f f f f f f;
#X floatatom 558 411 5 0 0 0 - - -;
#X floatatom 616 412 5 0 0 0 - - -;
#X floatatom 671 412 5 0 0 0 - - -;
#X floatatom 561 384 5 0 0 0 - - -;
#X floatatom 618 383 5 0 0 0 - - -;
#X floatatom 560 445 5 0 0 0 - - -;
#X floatatom 628 443 5 0 0 0 - - -;
#X obj 465 525 t b;
#X msg 395 78 -1.83 1.4 0 0 0 2 1;
#X msg 399 123 0.5 0.4 0 0 0 2 1;
#X connect 0 0 9 0;
#X connect 1 0 9 0;
#X connect 2 0 9 0;
#X connect 3 0 9 0;
#X connect 4 0 9 0;
#X connect 5 0 9 0;
#X connect 6 0 7 0;
#X connect 7 0 10 0;
#X connect 7 0 11 0;
#X connect 7 0 12 0;
#X connect 7 0 13 0;
#X connect 8 0 7 0;
#X connect 14 0 12 1;
#X connect 15 0 13 1;
#X connect 16 0 13 1;
#X connect 17 0 16 2;
#X connect 18 0 16 3;
#X connect 18 0 24 0;
#X connect 19 0 16 4;
#X connect 19 0 24 0;
#X connect 20 0 16 0;
#X connect 20 0 24 0;
#X connect 21 0 16 1;
#X connect 21 0 24 0;
#X connect 22 0 16 5;
#X connect 22 0 24 0;
#X connect 23 0 16 6;
#X connect 23 0 24 0;
#X connect 24 0 16 0;
#X connect 25 0 10 1;
#X connect 26 0 11 1;
