#N canvas 0 22 480 478 16;
#X obj 19 354 rectangle 4 3;
#X obj 41 176 pix_texture;
#X obj 68 148 separator;
#X obj 26 253 translateXYZ;
#X obj 22 323 rotateXYZ;
#X floatatom 166 301 5 0 0 0 - - -;
#X floatatom 230 299 5 0 0 0 - - -;
#X floatatom 168 205 5 0 0 0 - - -;
#X floatatom 229 201 5 0 0 0 - - -;
#X floatatom 177 263 5 0 0 0 - - -;
#X floatatom 241 259 5 0 0 0 - - -;
#X floatatom 306 261 5 0 0 0 - - -;
#X obj 29 291 ortho;
#X obj 67 61 inlet;
#X obj 233 65 inlet;
#X obj 225 103 unpack f f f f f f f;
#X connect 1 0 3 0;
#X connect 2 0 1 0;
#X connect 3 0 12 0;
#X connect 4 0 0 0;
#X connect 5 0 0 1;
#X connect 6 0 0 2;
#X connect 7 0 3 1;
#X connect 8 0 3 2;
#X connect 9 0 4 1;
#X connect 10 0 4 2;
#X connect 11 0 4 3;
#X connect 12 0 4 0;
#X connect 13 0 2 0;
#X connect 14 0 15 0;
#X connect 15 0 7 0;
#X connect 15 1 8 0;
#X connect 15 2 9 0;
#X connect 15 3 10 0;
#X connect 15 4 11 0;
#X connect 15 5 5 0;
#X connect 15 6 6 0;
