#N canvas 684 71 450 300 10;
#X obj 66 40 gemhead;
#X obj 62 246 gemwin;
#X obj 67 203 tgl 15 0 empty empty empty 17 7 0 10 -262144 -1 -1 1
1;
#X msg 96 196 create;
#X msg 97 219 destroy;
#X obj 63 73 pix_video;
#X msg 133 51 dimen 640 480;
#X obj 58 126 pix_buffer_write abc;
#X obj 237 161 gemhead;
#X obj 240 189 pix_buffer_read abc;
#X obj 239 214 pix_texture;
#X obj 241 247 rectangle 4 3;
#X floatatom 335 163 5 0 0 0 - - -;
#X msg 160 89 0;
#X msg 188 88 1;
#X msg 220 89 2;
#X msg 246 89 3;
#X msg 275 88 4;
#X msg 307 87 5;
#X obj 297 26 pix_buffer abc 6;
#X connect 0 0 5 0;
#X connect 2 0 1 0;
#X connect 3 0 1 0;
#X connect 4 0 1 0;
#X connect 5 0 7 0;
#X connect 6 0 5 0;
#X connect 8 0 9 0;
#X connect 9 0 10 0;
#X connect 10 0 11 0;
#X connect 12 0 9 1;
#X connect 13 0 7 1;
#X connect 14 0 7 1;
#X connect 15 0 7 1;
#X connect 16 0 7 1;
#X connect 17 0 7 1;
#X connect 18 0 7 1;
