#N canvas 724 113 471 440 10;
#X obj 151 32 gemhead;
#X obj 153 327 gemwin;
#X msg 206 324 create;
#X obj 157 298 tgl 15 0 empty empty empty 17 7 0 10 -262144 -1 -1 1
1;
#X msg 207 348 destroy;
#X obj 148 103 pix_video;
#X obj 150 240 pix_texture;
#X floatatom 221 265 5 0 0 0 - - -;
#X floatatom 261 265 5 0 0 0 - - -;
#X msg 262 328 dimen 640 480;
#X msg 173 81 dimen 640 480;
#X floatatom 208 197 5 0 0 0 - - -;
#X floatatom 351 132 5 0 0 0 - - -;
#X obj 303 244 print;
#X obj 343 216 t b b;
#X obj 343 241 timer;
#X floatatom 343 263 5 0 0 0 - - -;
#X msg 136 369 frame 60;
#X obj 132 266 rectangle 4 3;
#X obj 271 191 print;
#X obj 150 190 pix_mix;
#X obj 10 94 t a a;
#X obj 265 157 pix_delay 100;
#X obj 142 149 pix_separator;
#X obj 44 128 pix_separator;
#X obj 16 163 pix_separator;
#X connect 0 0 5 0;
#X connect 2 0 1 0;
#X connect 3 0 1 0;
#X connect 4 0 1 0;
#X connect 5 0 23 0;
#X connect 6 0 14 0;
#X connect 6 0 18 0;
#X connect 7 0 18 1;
#X connect 8 0 18 2;
#X connect 9 0 1 0;
#X connect 10 0 5 0;
#X connect 11 0 20 2;
#X connect 12 0 22 1;
#X connect 14 0 15 0;
#X connect 14 1 15 1;
#X connect 15 0 16 0;
#X connect 17 0 1 0;
#X connect 20 0 21 0;
#X connect 21 0 25 0;
#X connect 21 1 24 0;
#X connect 22 0 20 1;
#X connect 23 0 20 0;
#X connect 24 0 22 0;
#X connect 25 0 6 0;
