#N canvas 737 22 424 534 10;
#X obj 57 77 gemhead;
#X obj 22 307 pix_texture;
#X obj 57 189 pix_crop;
#X floatatom 69 153 5 0 0 1 dimX - -;
#X floatatom 82 170 5 0 0 1 dimY - -;
#X floatatom 149 153 5 0 0 1 offX - -;
#X obj 57 106 pix_video;
#X obj 132 379 pix_info;
#X floatatom 137 407 5 0 0 0 - - -;
#X floatatom 149 436 5 0 0 0 - - -;
#X floatatom 168 465 5 0 0 0 - - -;
#X obj 218 235 pix_delay 20;
#X obj 217 305 pix_texture;
#X floatatom 304 234 5 0 0 0 - - -;
#X obj 327 401 pix_info;
#X floatatom 332 429 5 0 0 0 - - -;
#X floatatom 344 458 5 0 0 0 - - -;
#X floatatom 363 487 5 0 0 0 - - -;
#X msg 109 41 dimen 640 480;
#X obj 123 73 unpack s f f;
#X obj 129 104 / 2;
#X obj 19 335 translateXYZ -2 0 0;
#X obj 20 360 rectangle 2 3;
#X floatatom 320 308 5 0 0 0 - - -;
#X obj 219 366 rectangle -2 3;
#X obj 20 467 gemwin;
#X msg 25 430 create;
#X msg 79 430 destroy;
#X obj 70 464 tgl 15 0 empty empty empty 17 7 0 10 -262144 -1 -1 1
1;
#X obj 218 274 separator;
#X obj 24 273 separator;
#X obj 219 335 translateXYZ 2 0 0;
#X msg 64 400 border 0;
#X connect 0 0 6 0;
#X connect 1 0 21 0;
#X connect 2 0 7 0;
#X connect 2 0 30 0;
#X connect 2 0 11 0;
#X connect 3 0 2 1;
#X connect 4 0 2 2;
#X connect 5 0 2 3;
#X connect 6 0 2 0;
#X connect 7 1 8 0;
#X connect 7 2 9 0;
#X connect 7 3 10 0;
#X connect 11 0 14 0;
#X connect 11 0 29 0;
#X connect 12 0 31 0;
#X connect 13 0 11 1;
#X connect 14 1 15 0;
#X connect 14 2 16 0;
#X connect 14 3 17 0;
#X connect 18 0 6 0;
#X connect 18 0 19 0;
#X connect 19 1 20 0;
#X connect 19 2 4 0;
#X connect 20 0 3 0;
#X connect 21 0 22 0;
#X connect 23 0 31 1;
#X connect 26 0 25 0;
#X connect 27 0 25 0;
#X connect 28 0 25 0;
#X connect 29 0 12 0;
#X connect 30 0 1 0;
#X connect 31 0 24 0;
#X connect 32 0 25 0;
